<?xml version="1.0" encoding="UTF-8"?>
<!DOCTYPE svg PUBLIC "-//W3C//DTD SVG 1.1//EN" "http://www.w3.org/Graphics/SVG/1.1/DTD/svg11.dtd">
<svg xmlns="http://www.w3.org/2000/svg" version="1.1" width="512px" height="512px" style="shape-rendering:geometricPrecision; text-rendering:geometricPrecision; image-rendering:optimizeQuality; fill-rule:evenodd; clip-rule:evenodd" xmlns:xlink="http://www.w3.org/1999/xlink">
<g><path style="opacity:0.999" fill="#bcc2c6" d="M 149.5,63.5 C 148.509,70.3134 148.175,77.3134 148.5,84.5C 134.5,84.5 120.5,84.5 106.5,84.5C 106.825,77.3134 106.491,70.3134 105.5,63.5C 105.334,55.16 105.5,46.8267 106,38.5C 110.561,22.9655 120.728,17.4655 136.5,22C 143.709,25.2071 147.875,30.7071 149,38.5C 149.5,46.8267 149.666,55.16 149.5,63.5 Z"/></g>
<g><path style="opacity:0.999" fill="#bcc2c6" d="M 405.5,63.5 C 404.509,70.3134 404.175,77.3134 404.5,84.5C 390.5,84.5 376.5,84.5 362.5,84.5C 362.825,77.3134 362.491,70.3134 361.5,63.5C 361.334,55.16 361.5,46.8267 362,38.5C 366.561,22.9655 376.728,17.4655 392.5,22C 399.709,25.2071 403.875,30.7071 405,38.5C 405.5,46.8267 405.666,55.16 405.5,63.5 Z"/></g>
<g><path style="opacity:1" fill="#e64c3c" d="M 105.5,63.5 C 105.666,73.8387 105.5,84.172 105,94.5C 91.3925,111.933 92.8925,128.1 109.5,143C 126.639,152.591 141.472,149.758 154,134.5C 162.427,120.102 161.094,106.768 150,94.5C 149.5,84.172 149.334,73.8387 149.5,63.5C 220.167,63.5 290.833,63.5 361.5,63.5C 361.666,73.8387 361.5,84.172 361,94.5C 347.393,111.933 348.893,128.1 365.5,143C 382.639,152.591 397.472,149.758 410,134.5C 418.427,120.102 417.094,106.768 406,94.5C 405.5,84.172 405.334,73.8387 405.5,63.5C 425.503,63.9928 439.003,73.6594 446,92.5C 447.472,125.451 447.972,158.451 447.5,191.5C 319.5,191.5 191.5,191.5 63.5,191.5C 63.0284,158.451 63.5284,125.451 65,92.5C 71.9971,73.6594 85.4971,63.9928 105.5,63.5 Z"/></g>
<g><path style="opacity:1" fill="#c03c2e" d="M 105.5,63.5 C 106.491,70.3134 106.825,77.3134 106.5,84.5C 106.077,94.5797 106.577,104.58 108,114.5C 115.472,127.545 125.972,130.712 139.5,124C 142.762,121.408 145.262,118.241 147,114.5C 148.423,104.58 148.923,94.5797 148.5,84.5C 148.175,77.3134 148.509,70.3134 149.5,63.5C 149.334,73.8387 149.5,84.172 150,94.5C 161.094,106.768 162.427,120.102 154,134.5C 141.472,149.758 126.639,152.591 109.5,143C 92.8925,128.1 91.3925,111.933 105,94.5C 105.5,84.172 105.666,73.8387 105.5,63.5 Z"/></g>
<g><path style="opacity:1" fill="#95a4a5" d="M 106.5,84.5 C 120.5,84.5 134.5,84.5 148.5,84.5C 148.923,94.5797 148.423,104.58 147,114.5C 145.262,118.241 142.762,121.408 139.5,124C 125.972,130.712 115.472,127.545 108,114.5C 106.577,104.58 106.077,94.5797 106.5,84.5 Z"/></g>
<g><path style="opacity:1" fill="#c03c2e" d="M 361.5,63.5 C 362.491,70.3134 362.825,77.3134 362.5,84.5C 362.077,94.5797 362.577,104.58 364,114.5C 371.472,127.545 381.972,130.712 395.5,124C 398.762,121.408 401.262,118.241 403,114.5C 404.423,104.58 404.923,94.5797 404.5,84.5C 404.175,77.3134 404.509,70.3134 405.5,63.5C 405.334,73.8387 405.5,84.172 406,94.5C 417.094,106.768 418.427,120.102 410,134.5C 397.472,149.758 382.639,152.591 365.5,143C 348.893,128.1 347.393,111.933 361,94.5C 361.5,84.172 361.666,73.8387 361.5,63.5 Z"/></g>
<g><path style="opacity:1" fill="#95a4a5" d="M 362.5,84.5 C 376.5,84.5 390.5,84.5 404.5,84.5C 404.923,94.5797 404.423,104.58 403,114.5C 401.262,118.241 398.762,121.408 395.5,124C 381.972,130.712 371.472,127.545 364,114.5C 362.577,104.58 362.077,94.5797 362.5,84.5 Z"/></g>
<g><path style="opacity:1" fill="#ebeff0" d="M 63.5,191.5 C 191.5,191.5 319.5,191.5 447.5,191.5C 447.174,224.24 447.508,256.907 448.5,289.5C 434.537,283.009 419.87,279.009 404.5,277.5C 404.5,263.167 404.5,248.833 404.5,234.5C 390.5,234.5 376.5,234.5 362.5,234.5C 362.5,248.5 362.5,262.5 362.5,276.5C 369.354,276.176 376.021,276.509 382.5,277.5C 361.478,279.185 342.478,286.185 325.5,298.5C 316.5,298.5 307.5,298.5 298.5,298.5C 298.5,307.5 298.5,316.5 298.5,325.5C 286.175,342.493 279.175,361.493 277.5,382.5C 276.509,376.021 276.176,369.354 276.5,362.5C 262.5,362.5 248.5,362.5 234.5,362.5C 234.5,376.5 234.5,390.5 234.5,404.5C 248.833,404.5 263.167,404.5 277.5,404.5C 279.062,419.52 283.062,433.853 289.5,447.5C 225.499,447.667 161.499,447.5 97.5,447C 78.5371,441.213 67.2037,428.713 63.5,409.5C 63.5,336.833 63.5,264.167 63.5,191.5 Z"/></g>
<g><path style="opacity:1" fill="#bcc3c6" d="M 106.5,234.5 C 120.5,234.5 134.5,234.5 148.5,234.5C 148.5,248.5 148.5,262.5 148.5,276.5C 134.5,276.5 120.5,276.5 106.5,276.5C 106.5,262.5 106.5,248.5 106.5,234.5 Z"/></g>
<g><path style="opacity:1" fill="#bcc3c6" d="M 170.5,234.5 C 184.5,234.5 198.5,234.5 212.5,234.5C 212.5,248.5 212.5,262.5 212.5,276.5C 198.5,276.5 184.5,276.5 170.5,276.5C 170.5,262.5 170.5,248.5 170.5,234.5 Z"/></g>
<g><path style="opacity:1" fill="#bcc3c6" d="M 234.5,234.5 C 248.5,234.5 262.5,234.5 276.5,234.5C 276.5,248.5 276.5,262.5 276.5,276.5C 262.5,276.5 248.5,276.5 234.5,276.5C 234.5,262.5 234.5,248.5 234.5,234.5 Z"/></g>
<g><path style="opacity:1" fill="#bcc3c6" d="M 298.5,234.5 C 312.5,234.5 326.5,234.5 340.5,234.5C 340.5,248.5 340.5,262.5 340.5,276.5C 326.5,276.5 312.5,276.5 298.5,276.5C 298.5,262.5 298.5,248.5 298.5,234.5 Z"/></g>
<g><path style="opacity:1" fill="#bcc2c6" d="M 404.5,277.5 C 397.167,277.5 389.833,277.5 382.5,277.5C 376.021,276.509 369.354,276.176 362.5,276.5C 362.5,262.5 362.5,248.5 362.5,234.5C 376.5,234.5 390.5,234.5 404.5,234.5C 404.5,248.833 404.5,263.167 404.5,277.5 Z"/></g>
<g><path style="opacity:0.99" fill="#94a4a5" d="M 382.5,277.5 C 389.833,277.5 397.167,277.5 404.5,277.5C 419.87,279.009 434.537,283.009 448.5,289.5C 483.992,308.789 504.992,338.455 511.5,378.5C 511.5,388.833 511.5,399.167 511.5,409.5C 503.081,455.138 477.415,486.971 434.5,505C 426.162,507.667 417.828,509.833 409.5,511.5C 399.167,511.5 388.833,511.5 378.5,511.5C 348.344,506.591 323.344,492.591 303.5,469.5C 298.431,462.429 293.764,455.096 289.5,447.5C 283.062,433.853 279.062,419.52 277.5,404.5C 277.338,397.287 277.338,389.954 277.5,382.5C 279.175,361.493 286.175,342.493 298.5,325.5C 301.757,321.065 305.257,316.732 309,312.5C 314.398,307.593 319.898,302.927 325.5,298.5C 342.478,286.185 361.478,279.185 382.5,277.5 Z"/></g>
<g><path style="opacity:1" fill="#2e4051" d="M 490.5,378.5 C 490.66,380.199 490.494,381.866 490,383.5C 479.173,341.005 452.339,315.172 409.5,306C 360.662,301.23 325.496,320.73 304,364.5C 301.533,371.37 299.533,378.37 298,385.5C 297.506,383.866 297.34,382.199 297.5,380.5C 305.271,336.893 330.604,309.393 373.5,298C 426.44,290.713 463.94,311.213 486,359.5C 488.29,365.661 489.79,371.995 490.5,378.5 Z"/></g>
<g><path style="opacity:1" fill="#bcc3c6" d="M 106.5,298.5 C 120.5,298.5 134.5,298.5 148.5,298.5C 148.5,312.5 148.5,326.5 148.5,340.5C 134.5,340.5 120.5,340.5 106.5,340.5C 106.5,326.5 106.5,312.5 106.5,298.5 Z"/></g>
<g><path style="opacity:1" fill="#bcc3c6" d="M 170.5,298.5 C 184.5,298.5 198.5,298.5 212.5,298.5C 212.5,312.5 212.5,326.5 212.5,340.5C 198.5,340.5 184.5,340.5 170.5,340.5C 170.5,326.5 170.5,312.5 170.5,298.5 Z"/></g>
<g><path style="opacity:1" fill="#bcc3c6" d="M 234.5,298.5 C 248.5,298.5 262.5,298.5 276.5,298.5C 276.5,312.5 276.5,326.5 276.5,340.5C 262.5,340.5 248.5,340.5 234.5,340.5C 234.5,326.5 234.5,312.5 234.5,298.5 Z"/></g>
<g><path style="opacity:1" fill="#bcc2c6" d="M 325.5,298.5 C 319.898,302.927 314.398,307.593 309,312.5C 305.257,316.732 301.757,321.065 298.5,325.5C 298.5,316.5 298.5,307.5 298.5,298.5C 307.5,298.5 316.5,298.5 325.5,298.5 Z"/></g>
<g><path style="opacity:1" fill="#34495e" d="M 490.5,378.5 C 495.674,426.32 476.674,460.82 433.5,482C 388.061,498.764 349.227,489.264 317,453.5C 300.425,431.765 293.925,407.432 297.5,380.5C 297.34,382.199 297.506,383.866 298,385.5C 299.533,378.37 301.533,371.37 304,364.5C 325.496,320.73 360.662,301.23 409.5,306C 452.339,315.172 479.173,341.005 490,383.5C 490.494,381.866 490.66,380.199 490.5,378.5 Z"/></g>
<g><path style="opacity:1" fill="#bac0c5" d="M 411.5,383.5 C 414.166,389.839 414.166,396.172 411.5,402.5C 408.83,407.998 404.497,411.498 398.5,413C 393.682,413.779 389.015,413.279 384.5,411.5C 381.833,409.5 379.5,407.167 377.5,404.5C 372.23,393.637 374.23,384.304 383.5,376.5C 384.333,361.511 384.833,346.511 385,331.5C 390.512,323.938 396.512,323.605 403,330.5C 403.167,345.844 403.667,361.178 404.5,376.5C 407.215,378.548 409.548,380.882 411.5,383.5 Z"/></g>
<g><path style="opacity:1" fill="#bcc3c6" d="M 106.5,362.5 C 120.5,362.5 134.5,362.5 148.5,362.5C 148.5,376.5 148.5,390.5 148.5,404.5C 134.5,404.5 120.5,404.5 106.5,404.5C 106.5,390.5 106.5,376.5 106.5,362.5 Z"/></g>
<g><path style="opacity:1" fill="#bcc3c6" d="M 170.5,362.5 C 184.5,362.5 198.5,362.5 212.5,362.5C 212.5,376.5 212.5,390.5 212.5,404.5C 198.5,404.5 184.5,404.5 170.5,404.5C 170.5,390.5 170.5,376.5 170.5,362.5 Z"/></g>
<g><path style="opacity:1" fill="#bcc2c6" d="M 277.5,382.5 C 277.338,389.954 277.338,397.287 277.5,404.5C 263.167,404.5 248.833,404.5 234.5,404.5C 234.5,390.5 234.5,376.5 234.5,362.5C 248.5,362.5 262.5,362.5 276.5,362.5C 276.176,369.354 276.509,376.021 277.5,382.5 Z"/></g>
<g><path style="opacity:1" fill="#96a5a6" d="M 411.5,383.5 C 415.167,383.5 418.833,383.5 422.5,383.5C 423.833,389.833 423.833,396.167 422.5,402.5C 418.833,402.5 415.167,402.5 411.5,402.5C 414.166,396.172 414.166,389.839 411.5,383.5 Z"/></g>
<g><path style="opacity:1" fill="#bcc2c6" d="M 422.5,383.5 C 439.837,383.333 457.17,383.5 474.5,384C 482.466,387.084 484.299,392.251 480,399.5C 478.829,400.893 477.329,401.727 475.5,402C 457.836,402.5 440.17,402.667 422.5,402.5C 423.833,396.167 423.833,389.833 422.5,383.5 Z"/></g>
<g><path style="opacity:1" fill="#2e4052" d="M 390.5,383.5 C 400.999,383.169 405.166,388.169 403,398.5C 397.631,404.698 391.964,405.032 386,399.5C 382.975,392.742 384.475,387.409 390.5,383.5 Z"/></g>
<g><path style="opacity:1" fill="#bb3a2c" d="M 377.5,404.5 C 379.5,407.167 381.833,409.5 384.5,411.5C 370.521,425.145 356.521,438.812 342.5,452.5C 340.851,450.35 339.018,448.35 337,446.5C 336.333,445.833 336.333,445.167 337,444.5C 350.368,430.965 363.868,417.631 377.5,404.5 Z"/></g>
<g><path style="opacity:0.996" fill="#bcc3c7" d="M 63.5,409.5 C 67.2037,428.713 78.5371,441.213 97.5,447C 161.499,447.5 225.499,447.667 289.5,447.5C 293.764,455.096 298.431,462.429 303.5,469.5C 234.13,469.983 164.796,469.483 95.5,468C 78.5564,463.39 68.0564,452.557 64,435.5C 63.5002,426.84 63.3336,418.173 63.5,409.5 Z"/></g>
</svg>
