<?xml version="1.0" encoding="UTF-8"?>
<!DOCTYPE svg PUBLIC "-//W3C//DTD SVG 1.1//EN" "http://www.w3.org/Graphics/SVG/1.1/DTD/svg11.dtd">
<svg xmlns="http://www.w3.org/2000/svg" version="1.1" width="512px" height="512px" style="shape-rendering:geometricPrecision; text-rendering:geometricPrecision; image-rendering:optimizeQuality; fill-rule:evenodd; clip-rule:evenodd" xmlns:xlink="http://www.w3.org/1999/xlink">
<g><path style="opacity:0.999" fill="#385997" d="M 75.5,-0.5 C 195.5,-0.5 315.5,-0.5 435.5,-0.5C 477.158,8.49107 502.491,33.8244 511.5,75.5C 511.5,195.5 511.5,315.5 511.5,435.5C 502.5,477.167 477.167,502.5 435.5,511.5C 408.5,511.5 381.5,511.5 354.5,511.5C 354.5,447.5 354.5,383.5 354.5,319.5C 377.167,319.5 399.833,319.5 422.5,319.5C 426.09,291.78 430.09,264.113 434.5,236.5C 408.339,235.502 382.005,235.169 355.5,235.5C 355.5,214.167 355.5,192.833 355.5,171.5C 357.872,164.968 362.539,161.135 369.5,160C 390.164,159.5 410.831,159.333 431.5,159.5C 431.5,131.833 431.5,104.167 431.5,76.5C 405.796,76.0568 380.129,76.5568 354.5,78C 308.721,88.4441 281.221,116.611 272,162.5C 271.5,187.164 271.333,211.831 271.5,236.5C 249.167,236.5 226.833,236.5 204.5,236.5C 204.5,264.167 204.5,291.833 204.5,319.5C 226.833,319.5 249.167,319.5 271.5,319.5C 271.5,383.5 271.5,447.5 271.5,511.5C 206.167,511.5 140.833,511.5 75.5,511.5C 33.8333,502.5 8.5,477.167 -0.5,435.5C -0.5,315.5 -0.5,195.5 -0.5,75.5C 8.5,33.8333 33.8333,8.5 75.5,-0.5 Z"/></g>
<g><path style="opacity:1" fill="#fefefe" d="M 355.5,171.5 C 354.503,192.994 354.169,214.66 354.5,236.5C 381.167,236.5 407.833,236.5 434.5,236.5C 430.09,264.113 426.09,291.78 422.5,319.5C 399.833,319.5 377.167,319.5 354.5,319.5C 354.5,383.5 354.5,447.5 354.5,511.5C 326.833,511.5 299.167,511.5 271.5,511.5C 271.5,447.5 271.5,383.5 271.5,319.5C 249.167,319.5 226.833,319.5 204.5,319.5C 204.5,291.833 204.5,264.167 204.5,236.5C 226.833,236.5 249.167,236.5 271.5,236.5C 271.333,211.831 271.5,187.164 272,162.5C 281.221,116.611 308.721,88.4441 354.5,78C 380.129,76.5568 405.796,76.0568 431.5,76.5C 431.5,104.167 431.5,131.833 431.5,159.5C 410.831,159.333 390.164,159.5 369.5,160C 362.539,161.135 357.872,164.968 355.5,171.5 Z"/></g>
<g><path style="opacity:1" fill="#607aac" d="M 355.5,171.5 C 355.5,192.833 355.5,214.167 355.5,235.5C 382.005,235.169 408.339,235.502 434.5,236.5C 407.833,236.5 381.167,236.5 354.5,236.5C 354.169,214.66 354.503,192.994 355.5,171.5 Z"/></g>
</svg>
