<?xml version="1.0" encoding="UTF-8"?>
<!DOCTYPE svg PUBLIC "-//W3C//DTD SVG 1.1//EN" "http://www.w3.org/Graphics/SVG/1.1/DTD/svg11.dtd">
<svg xmlns="http://www.w3.org/2000/svg" version="1.1" width="512px" height="512px" style="shape-rendering:geometricPrecision; text-rendering:geometricPrecision; image-rendering:optimizeQuality; fill-rule:evenodd; clip-rule:evenodd" xmlns:xlink="http://www.w3.org/1999/xlink">
<g><path style="opacity:0.998" fill="#e75a4d" d="M 99.5,112.5 C 150.759,152.133 202.759,190.8 255.5,228.5C 308.241,190.8 360.241,152.133 411.5,112.5C 424.669,110.497 435.502,114.497 444,124.5C 445.275,126.717 446.275,129.051 447,131.5C 447.667,213.167 447.667,294.833 447,376.5C 444.5,385.667 438.667,391.5 429.5,394C 423.555,395.162 417.555,395.662 411.5,395.5C 411.667,320.166 411.5,244.833 411,169.5C 410.283,170.044 409.783,170.711 409.5,171.5C 374.396,197.425 339.396,223.592 304.5,250C 288.293,261.931 271.626,273.097 254.5,283.5C 237.404,272.254 220.404,260.754 203.5,249C 169.29,223.4 135.29,197.567 101.5,171.5C 101.44,170.957 101.107,170.624 100.5,170.5C 99.5,245.497 99.1667,320.497 99.5,395.5C 99.5,396.167 99.5,396.833 99.5,397.5C 86.2607,399.482 75.4274,395.482 67,385.5C 65.7246,383.283 64.7246,380.949 64,378.5C 63.3333,296.167 63.3333,213.833 64,131.5C 67.1667,123 73,117.167 81.5,114C 87.4547,112.928 93.4547,112.428 99.5,112.5 Z"/></g>
<g><path style="opacity:1" fill="#f7f4ec" d="M 99.5,112.5 C 203.5,112.5 307.5,112.5 411.5,112.5C 360.241,152.133 308.241,190.8 255.5,228.5C 202.759,190.8 150.759,152.133 99.5,112.5 Z"/></g>
<g><path style="opacity:0.816" fill="#f0c5bb" d="M 101.5,171.5 C 100.501,245.665 100.167,319.998 100.5,394.5C 100.5,395.167 100.167,395.5 99.5,395.5C 99.1667,320.497 99.5,245.497 100.5,170.5C 101.107,170.624 101.44,170.957 101.5,171.5 Z"/></g>
<g><path style="opacity:0.817" fill="#bbafa4" d="M 411.5,395.5 C 411.167,395.5 410.833,395.5 410.5,395.5C 410.5,394.833 410.5,394.167 410.5,393.5C 410.833,319.331 410.499,245.331 409.5,171.5C 409.783,170.711 410.283,170.044 411,169.5C 411.5,244.833 411.667,320.166 411.5,395.5 Z"/></g>
<g><path style="opacity:1" fill="#f6f4ec" d="M 101.5,171.5 C 135.29,197.567 169.29,223.4 203.5,249C 220.404,260.754 237.404,272.254 254.5,283.5C 203.167,320.5 151.833,357.5 100.5,394.5C 100.167,319.998 100.501,245.665 101.5,171.5 Z"/></g>
<g><path style="opacity:1" fill="#b7b6ad" d="M 409.5,171.5 C 410.499,245.331 410.833,319.331 410.5,393.5C 359.203,357.217 307.87,320.883 256.5,284.5C 205.231,320.783 154.564,357.783 104.5,395.5C 103.18,396.942 101.514,397.608 99.5,397.5C 99.5,396.833 99.5,396.167 99.5,395.5C 100.167,395.5 100.5,395.167 100.5,394.5C 151.833,357.5 203.167,320.5 254.5,283.5C 271.626,273.097 288.293,261.931 304.5,250C 339.396,223.592 374.396,197.425 409.5,171.5 Z"/></g>
<g><path style="opacity:1" fill="#f6f4ec" d="M 410.5,393.5 C 410.5,394.167 410.5,394.833 410.5,395.5C 308.5,395.5 206.5,395.5 104.5,395.5C 154.564,357.783 205.231,320.783 256.5,284.5C 307.87,320.883 359.203,357.217 410.5,393.5 Z"/></g>
</svg>
