<?xml version="1.0" encoding="UTF-8"?>
<!DOCTYPE svg PUBLIC "-//W3C//DTD SVG 1.1//EN" "http://www.w3.org/Graphics/SVG/1.1/DTD/svg11.dtd">
<svg xmlns="http://www.w3.org/2000/svg" version="1.1" width="512px" height="512px" style="shape-rendering:geometricPrecision; text-rendering:geometricPrecision; image-rendering:optimizeQuality; fill-rule:evenodd; clip-rule:evenodd" xmlns:xlink="http://www.w3.org/1999/xlink">
<g><path style="opacity:0.996" fill="#d72987" d="M 75.5,-0.5 C 81.5,-0.5 87.5,-0.5 93.5,-0.5C 150.581,11.6343 203.914,32.9676 253.5,63.5C 239.833,63.5 226.167,63.5 212.5,63.5C 173.98,43.3792 133.313,28.8792 90.5,20C 74.6902,17.1448 59.0235,14.3115 43.5,11.5C 53.5257,5.71468 64.1924,1.71468 75.5,-0.5 Z"/></g>
<g><path style="opacity:1" fill="#d1298a" d="M 93.5,-0.5 C 115.833,-0.5 138.167,-0.5 160.5,-0.5C 205.587,15.0424 247.587,36.3757 286.5,63.5C 275.5,63.5 264.5,63.5 253.5,63.5C 203.914,32.9676 150.581,11.6343 93.5,-0.5 Z"/></g>
<g><path style="opacity:1" fill="#cb298d" d="M 160.5,-0.5 C 175.833,-0.5 191.167,-0.5 206.5,-0.5C 245.565,16.5196 281.898,37.8529 315.5,63.5C 305.833,63.5 296.167,63.5 286.5,63.5C 247.587,36.3757 205.587,15.0424 160.5,-0.5 Z"/></g>
<g><path style="opacity:1" fill="#c42991" d="M 206.5,-0.5 C 220.5,-0.5 234.5,-0.5 248.5,-0.5C 282.908,17.3602 314.908,38.6936 344.5,63.5C 334.833,63.5 325.167,63.5 315.5,63.5C 281.898,37.8529 245.565,16.5196 206.5,-0.5 Z"/></g>
<g><path style="opacity:1" fill="#be2a94" d="M 248.5,-0.5 C 259.5,-0.5 270.5,-0.5 281.5,-0.5C 311.525,17.1893 339.858,37.3559 366.5,60C 368.464,61.451 369.797,63.2843 370.5,65.5C 361.924,63.858 353.257,63.1913 344.5,63.5C 314.908,38.6936 282.908,17.3602 248.5,-0.5 Z"/></g>
<g><path style="opacity:1" fill="#b82b98" d="M 281.5,-0.5 C 291.833,-0.5 302.167,-0.5 312.5,-0.5C 395.771,54.7679 462.104,125.768 511.5,212.5C 511.5,224.167 511.5,235.833 511.5,247.5C 493.391,210.765 471.724,176.432 446.5,144.5C 437.463,102.463 412.129,76.1299 370.5,65.5C 369.797,63.2843 368.464,61.451 366.5,60C 339.858,37.3559 311.525,17.1893 281.5,-0.5 Z"/></g>
<g><path style="opacity:1" fill="#b3299b" d="M 312.5,-0.5 C 319.5,-0.5 326.5,-0.5 333.5,-0.5C 386.197,36.3564 432.363,80.3564 472,131.5C 485.931,150.379 499.098,169.713 511.5,189.5C 511.5,197.167 511.5,204.833 511.5,212.5C 462.104,125.768 395.771,54.7679 312.5,-0.5 Z"/></g>
<g><path style="opacity:1" fill="#af299d" d="M 333.5,-0.5 C 337.5,-0.5 341.5,-0.5 345.5,-0.5C 412.269,47.5959 467.602,106.263 511.5,175.5C 511.5,180.167 511.5,184.833 511.5,189.5C 499.098,169.713 485.931,150.379 472,131.5C 432.363,80.3564 386.197,36.3564 333.5,-0.5 Z"/></g>
<g><path style="opacity:1" fill="#ab299f" d="M 345.5,-0.5 C 354.5,-0.5 363.5,-0.5 372.5,-0.5C 426.096,41.7588 472.429,90.7588 511.5,146.5C 511.5,156.167 511.5,165.833 511.5,175.5C 467.602,106.263 412.269,47.5959 345.5,-0.5 Z"/></g>
<g><path style="opacity:1" fill="#a529a3" d="M 372.5,-0.5 C 381.167,-0.5 389.833,-0.5 398.5,-0.5C 440.721,35.0493 478.388,74.716 511.5,118.5C 511.5,127.833 511.5,137.167 511.5,146.5C 472.429,90.7588 426.096,41.7588 372.5,-0.5 Z"/></g>
<g><path style="opacity:1" fill="#9f29a6" d="M 398.5,-0.5 C 407.5,-0.5 416.5,-0.5 425.5,-0.5C 456.637,27.2997 485.303,57.2997 511.5,89.5C 511.5,99.1667 511.5,108.833 511.5,118.5C 478.388,74.716 440.721,35.0493 398.5,-0.5 Z"/></g>
<g><path style="opacity:0.986" fill="#9829aa" d="M 425.5,-0.5 C 428.833,-0.5 432.167,-0.5 435.5,-0.5C 477.158,8.49107 502.491,33.8244 511.5,75.5C 511.5,80.1667 511.5,84.8333 511.5,89.5C 485.303,57.2997 456.637,27.2997 425.5,-0.5 Z"/></g>
<g><path style="opacity:0.998" fill="#dd2984" d="M 43.5,11.5 C 59.0235,14.3115 74.6902,17.1448 90.5,20C 133.313,28.8792 173.98,43.3792 212.5,63.5C 195.833,63.5 179.167,63.5 162.5,63.5C 117.041,44.9707 69.7081,33.9707 20.5,30.5C 26.8373,22.506 34.504,16.1727 43.5,11.5 Z"/></g>
<g><path style="opacity:0.997" fill="#e32a80" d="M 20.5,30.5 C 69.7081,33.9707 117.041,44.9707 162.5,63.5C 146.313,63.0476 130.98,66.3809 116.5,73.5C 116.119,72.0689 115.119,71.2355 113.5,71C 80.1532,61.4422 46.1532,55.7755 11.5,54C 9.563,53.8784 8.22967,53.045 7.5,51.5C 10.5837,43.6535 14.9171,36.6535 20.5,30.5 Z"/></g>
<g><path style="opacity:0.996" fill="#e92a7d" d="M 7.5,51.5 C 8.22967,53.045 9.563,53.8784 11.5,54C 46.1532,55.7755 80.1532,61.4422 113.5,71C 115.119,71.2355 116.119,72.0689 116.5,73.5C 111.873,76.1494 107.207,78.816 102.5,81.5C 69.5861,71.6077 35.9194,66.941 1.5,67.5C 2.9325,61.8587 4.9325,56.5254 7.5,51.5 Z"/></g>
<g><path style="opacity:1" fill="#fefefe" d="M 162.5,63.5 C 179.167,63.5 195.833,63.5 212.5,63.5C 226.167,63.5 239.833,63.5 253.5,63.5C 264.5,63.5 275.5,63.5 286.5,63.5C 296.167,63.5 305.833,63.5 315.5,63.5C 325.167,63.5 334.833,63.5 344.5,63.5C 353.257,63.1913 361.924,63.858 370.5,65.5C 412.129,76.1299 437.463,102.463 446.5,144.5C 447.418,153.793 447.752,163.127 447.5,172.5C 447.5,183.167 447.5,193.833 447.5,204.5C 447.5,215.167 447.5,225.833 447.5,236.5C 447.5,249.167 447.5,261.833 447.5,274.5C 447.5,291.167 447.5,307.833 447.5,324.5C 448.384,343.027 447.051,361.361 443.5,379.5C 439.391,391.055 433.724,401.722 426.5,411.5C 420.132,418.869 413.132,425.536 405.5,431.5C 401.7,433.234 398.034,435.234 394.5,437.5C 389.244,439.697 383.911,441.697 378.5,443.5C 374.385,444.51 370.385,445.51 366.5,446.5C 362.19,447.08 357.857,447.414 353.5,447.5C 348.833,447.5 344.167,447.5 339.5,447.5C 334.5,447.5 329.5,447.5 324.5,447.5C 320.167,447.5 315.833,447.5 311.5,447.5C 306.833,447.5 302.167,447.5 297.5,447.5C 293.167,447.5 288.833,447.5 284.5,447.5C 279.5,447.5 274.5,447.5 269.5,447.5C 264.833,447.5 260.167,447.5 255.5,447.5C 251.167,447.5 246.833,447.5 242.5,447.5C 237.833,447.5 233.167,447.5 228.5,447.5C 223.5,447.5 218.5,447.5 213.5,447.5C 209.5,447.5 205.5,447.5 201.5,447.5C 196.5,447.5 191.5,447.5 186.5,447.5C 181.833,447.5 177.167,447.5 172.5,447.5C 167.167,447.5 161.833,447.5 156.5,447.5C 151.797,447.563 147.13,447.229 142.5,446.5C 137.327,445.007 131.994,443.674 126.5,442.5C 120.075,439.453 113.741,436.12 107.5,432.5C 92.281,422.281 80.6143,408.947 72.5,392.5C 69.2047,384.614 66.5381,376.614 64.5,368.5C 64.1667,364.5 63.8333,360.5 63.5,356.5C 63.5,351.5 63.5,346.5 63.5,341.5C 63.5,335.833 63.5,330.167 63.5,324.5C 63.5,319.833 63.5,315.167 63.5,310.5C 63.5,305.5 63.5,300.5 63.5,295.5C 63.5,291.167 63.5,286.833 63.5,282.5C 63.5,277.167 63.5,271.833 63.5,266.5C 63.5,262.167 63.5,257.833 63.5,253.5C 63.5,248.833 63.5,244.167 63.5,239.5C 63.5,234.833 63.5,230.167 63.5,225.5C 63.5,220.5 63.5,215.5 63.5,210.5C 63.5,205.833 63.5,201.167 63.5,196.5C 63.5,192.167 63.5,187.833 63.5,183.5C 63.5,178.833 63.5,174.167 63.5,169.5C 63.5,164.5 63.5,159.5 63.5,154.5C 63.7349,149.759 64.4016,145.092 65.5,140.5C 66.2488,136.418 67.2488,132.418 68.5,128.5C 70.1667,124.5 71.8333,120.5 73.5,116.5C 76.1785,111.806 78.8452,107.139 81.5,102.5C 88.1667,95.1667 95.1667,88.1667 102.5,81.5C 107.207,78.816 111.873,76.1494 116.5,73.5C 130.98,66.3809 146.313,63.0476 162.5,63.5 Z"/></g>
<g><path style="opacity:0.998" fill="#ed2d7a" d="M 102.5,81.5 C 95.1667,88.1667 88.1667,95.1667 81.5,102.5C 54.5463,96.2211 27.2129,92.5545 -0.5,91.5C -0.5,86.1667 -0.5,80.8333 -0.5,75.5C 0.370512,72.997 1.03718,70.3303 1.5,67.5C 35.9194,66.941 69.5861,71.6077 102.5,81.5 Z"/></g>
<g><path style="opacity:1" fill="#ee3577" d="M -0.5,91.5 C 27.2129,92.5545 54.5463,96.2211 81.5,102.5C 78.8452,107.139 76.1785,111.806 73.5,116.5C 49.211,110.727 24.5443,107.727 -0.5,107.5C -0.5,102.167 -0.5,96.8333 -0.5,91.5 Z"/></g>
<g><path style="opacity:1" fill="#e92a7d" d="M 164.5,102.5 C 174.167,102.5 183.833,102.5 193.5,102.5C 217.529,115.174 240.195,129.84 261.5,146.5C 255.122,146.295 248.789,146.628 242.5,147.5C 218.102,129.96 192.102,114.96 164.5,102.5 Z"/></g>
<g><path style="opacity:1" fill="#e42b81" d="M 193.5,102.5 C 209.5,102.5 225.5,102.5 241.5,102.5C 270.292,121.101 296.959,142.601 321.5,167C 320.906,167.464 320.239,167.631 319.5,167.5C 302.107,155.367 282.773,148.367 261.5,146.5C 240.195,129.84 217.529,115.174 193.5,102.5 Z"/></g>
<g><path style="opacity:1" fill="#df2b83" d="M 241.5,102.5 C 246.5,102.5 251.5,102.5 256.5,102.5C 320.156,146.147 370.823,201.48 408.5,268.5C 408.5,274.167 408.5,279.833 408.5,285.5C 391.578,253.323 371.411,223.323 348,195.5C 347.601,195.728 347.435,196.062 347.5,196.5C 339.539,185.539 330.206,175.872 319.5,167.5C 320.239,167.631 320.906,167.464 321.5,167C 296.959,142.601 270.292,121.101 241.5,102.5 Z"/></g>
<g><path style="opacity:1" fill="#dc2a84" d="M 256.5,102.5 C 263.5,102.5 270.5,102.5 277.5,102.5C 302.396,121.727 326.062,142.394 348.5,164.5C 350.167,165.5 351.5,166.833 352.5,168.5C 362.809,180.984 372.976,193.651 383,206.5C 391.523,218.899 400.023,231.233 408.5,243.5C 408.5,251.833 408.5,260.167 408.5,268.5C 370.823,201.48 320.156,146.147 256.5,102.5 Z"/></g>
<g><path style="opacity:1" fill="#d72a87" d="M 277.5,102.5 C 288.5,102.5 299.5,102.5 310.5,102.5C 324.434,114.098 337.768,126.431 350.5,139.5C 344.666,147.348 343.999,155.682 348.5,164.5C 326.062,142.394 302.396,121.727 277.5,102.5 Z"/></g>
<g><path style="opacity:1" fill="#d12a8a" d="M 310.5,102.5 C 319.839,102.334 329.173,102.5 338.5,103C 349.191,112.691 359.524,122.691 369.5,133C 366.305,133.181 363.305,133.681 360.5,134.5C 356.615,135.109 353.282,136.776 350.5,139.5C 337.768,126.431 324.434,114.098 310.5,102.5 Z"/></g>
<g><path style="opacity:1" fill="#d03e95" d="M 152.5,102.5 C 220.665,101.335 288.999,101.168 357.5,102C 386.21,107.043 403.377,123.877 409,152.5C 409.832,221.001 409.665,289.335 408.5,357.5C 408.5,352.833 408.5,348.167 408.5,343.5C 408.5,324.167 408.5,304.833 408.5,285.5C 408.5,279.833 408.5,274.167 408.5,268.5C 408.5,260.167 408.5,251.833 408.5,243.5C 408.5,231.167 408.5,218.833 408.5,206.5C 408.666,196.494 408.5,186.494 408,176.5C 400.052,166.907 391.885,157.574 383.5,148.5C 379.556,138.016 371.889,133.35 360.5,134.5C 363.305,133.681 366.305,133.181 369.5,133C 359.524,122.691 349.191,112.691 338.5,103C 329.173,102.5 319.839,102.334 310.5,102.5C 299.5,102.5 288.5,102.5 277.5,102.5C 270.5,102.5 263.5,102.5 256.5,102.5C 251.5,102.5 246.5,102.5 241.5,102.5C 225.5,102.5 209.5,102.5 193.5,102.5C 183.833,102.5 174.167,102.5 164.5,102.5C 160.5,102.5 156.5,102.5 152.5,102.5 Z"/></g>
<g><path style="opacity:1" fill="#ed2e7a" d="M 152.5,102.5 C 156.5,102.5 160.5,102.5 164.5,102.5C 192.102,114.96 218.102,129.96 242.5,147.5C 231.098,149.079 220.098,152.079 209.5,156.5C 182.99,139.079 154.656,125.079 124.5,114.5C 132.333,107.256 141.667,103.256 152.5,102.5 Z"/></g>
<g><path style="opacity:1" fill="#ef3b74" d="M -0.5,107.5 C 24.5443,107.727 49.211,110.727 73.5,116.5C 71.8333,120.5 70.1667,124.5 68.5,128.5C 45.7705,123.641 22.7705,120.974 -0.5,120.5C -0.5,116.167 -0.5,111.833 -0.5,107.5 Z"/></g>
<g><path style="opacity:1" fill="#ee3577" d="M 124.5,114.5 C 154.656,125.079 182.99,139.079 209.5,156.5C 204.869,159.151 200.202,161.818 195.5,164.5C 168.931,149.381 141.264,136.714 112.5,126.5C 115.521,121.479 119.521,117.479 124.5,114.5 Z"/></g>
<g><path style="opacity:1" fill="#ef4172" d="M -0.5,120.5 C 22.7705,120.974 45.7705,123.641 68.5,128.5C 67.2488,132.418 66.2488,136.418 65.5,140.5C 43.6598,136.703 21.6598,134.37 -0.5,133.5C -0.5,129.167 -0.5,124.833 -0.5,120.5 Z"/></g>
<g><path style="opacity:1" fill="#ef3c74" d="M 112.5,126.5 C 141.264,136.714 168.931,149.381 195.5,164.5C 191.524,167.469 187.524,170.469 183.5,173.5C 158.817,159.173 133.15,147.173 106.5,137.5C 107.742,133.345 109.742,129.678 112.5,126.5 Z"/></g>
<g><path style="opacity:1" fill="#fefcfd" d="M 360.5,134.5 C 371.889,133.35 379.556,138.016 383.5,148.5C 384.331,156.343 381.998,163.01 376.5,168.5C 368.503,173.759 360.503,173.759 352.5,168.5C 351.5,166.833 350.167,165.5 348.5,164.5C 343.999,155.682 344.666,147.348 350.5,139.5C 353.282,136.776 356.615,135.109 360.5,134.5 Z"/></g>
<g><path style="opacity:1" fill="#f04770" d="M -0.5,133.5 C 21.6598,134.37 43.6598,136.703 65.5,140.5C 64.4016,145.092 63.7349,149.759 63.5,154.5C 42.4735,149.719 21.1401,147.052 -0.5,146.5C -0.5,142.167 -0.5,137.833 -0.5,133.5 Z"/></g>
<g><path style="opacity:1" fill="#ef4272" d="M 106.5,137.5 C 133.15,147.173 158.817,159.173 183.5,173.5C 180.833,176.833 177.833,179.833 174.5,182.5C 152.265,170.696 129.265,160.529 105.5,152C 103.893,150.951 103.227,149.451 103.5,147.5C 103.723,143.838 104.723,140.505 106.5,137.5 Z"/></g>
<g><path style="opacity:1" fill="#f04e6d" d="M -0.5,146.5 C 21.1401,147.052 42.4735,149.719 63.5,154.5C 63.5,159.5 63.5,164.5 63.5,169.5C 42.3688,165.243 21.0354,162.577 -0.5,161.5C -0.5,156.5 -0.5,151.5 -0.5,146.5 Z"/></g>
<g><path style="opacity:1" fill="#fefdfd" d="M 261.5,146.5 C 282.773,148.367 302.107,155.367 319.5,167.5C 330.206,175.872 339.539,185.539 347.5,196.5C 358.921,215.177 364.587,235.511 364.5,257.5C 363.664,265.18 362.664,272.847 361.5,280.5C 358.721,290.41 355.055,300.077 350.5,309.5C 347.266,313.622 344.266,317.955 341.5,322.5C 338.195,326.141 334.862,329.808 331.5,333.5C 328.141,336.529 324.808,339.529 321.5,342.5C 317.664,344.584 313.997,346.917 310.5,349.5C 305.768,351.866 301.101,354.199 296.5,356.5C 292.167,357.833 287.833,359.167 283.5,360.5C 279.138,361.372 274.804,362.372 270.5,363.5C 265.87,364.229 261.203,364.563 256.5,364.5C 250.471,364.575 244.471,364.241 238.5,363.5C 232.901,361.913 227.235,360.58 221.5,359.5C 214.235,356.204 206.902,352.871 199.5,349.5C 180.92,337.256 166.586,321.256 156.5,301.5C 153.806,293.748 151.139,286.081 148.5,278.5C 148.02,273.47 147.353,268.47 146.5,263.5C 146.5,257.5 146.5,251.5 146.5,245.5C 147.503,240.809 148.503,236.142 149.5,231.5C 150.373,227.137 151.373,222.804 152.5,218.5C 154.467,214.565 156.467,210.565 158.5,206.5C 160.591,201.98 162.925,197.647 165.5,193.5C 168.729,190.057 171.729,186.39 174.5,182.5C 177.833,179.833 180.833,176.833 183.5,173.5C 187.524,170.469 191.524,167.469 195.5,164.5C 200.202,161.818 204.869,159.151 209.5,156.5C 220.098,152.079 231.098,149.079 242.5,147.5C 248.789,146.628 255.122,146.295 261.5,146.5 Z"/></g>
<g><path style="opacity:1" fill="#d12a8a" d="M 383.5,148.5 C 391.885,157.574 400.052,166.907 408,176.5C 408.5,186.494 408.666,196.494 408.5,206.5C 399.353,194.903 390.186,183.236 381,171.5C 379.871,169.859 378.371,168.859 376.5,168.5C 381.998,163.01 384.331,156.343 383.5,148.5 Z"/></g>
<g><path style="opacity:1" fill="#f04870" d="M 103.5,147.5 C 103.227,149.451 103.893,150.951 105.5,152C 129.265,160.529 152.265,170.696 174.5,182.5C 171.729,186.39 168.729,190.057 165.5,193.5C 145.616,181.726 124.616,172.393 102.5,165.5C 102.5,161.167 102.5,156.833 102.5,152.5C 102.216,150.585 102.549,148.919 103.5,147.5 Z"/></g>
<g><path style="opacity:1" fill="#be2a94" d="M 446.5,144.5 C 471.724,176.432 493.391,210.765 511.5,247.5C 511.5,260.5 511.5,273.5 511.5,286.5C 494.263,246.007 472.929,208.007 447.5,172.5C 447.752,163.127 447.418,153.793 446.5,144.5 Z"/></g>
<g><path style="opacity:1" fill="#f0546b" d="M -0.5,161.5 C 21.0354,162.577 42.3688,165.243 63.5,169.5C 63.5,174.167 63.5,178.833 63.5,183.5C 42.4721,178.538 21.1388,175.538 -0.5,174.5C -0.5,170.167 -0.5,165.833 -0.5,161.5 Z"/></g>
<g><path style="opacity:1" fill="#f04e6d" d="M 102.5,165.5 C 124.616,172.393 145.616,181.726 165.5,193.5C 162.925,197.647 160.591,201.98 158.5,206.5C 140.603,196.554 121.936,188.22 102.5,181.5C 102.5,176.167 102.5,170.833 102.5,165.5 Z"/></g>
<g><path style="opacity:1" fill="#d72a87" d="M 352.5,168.5 C 360.503,173.759 368.503,173.759 376.5,168.5C 378.371,168.859 379.871,169.859 381,171.5C 390.186,183.236 399.353,194.903 408.5,206.5C 408.5,218.833 408.5,231.167 408.5,243.5C 400.023,231.233 391.523,218.899 383,206.5C 372.976,193.651 362.809,180.984 352.5,168.5 Z"/></g>
<g><path style="opacity:1" fill="#c42991" d="M 447.5,172.5 C 472.929,208.007 494.263,246.007 511.5,286.5C 511.5,304.167 511.5,321.833 511.5,339.5C 496.331,291.498 474.997,246.498 447.5,204.5C 447.5,193.833 447.5,183.167 447.5,172.5 Z"/></g>
<g><path style="opacity:1" fill="#f15a68" d="M -0.5,174.5 C 21.1388,175.538 42.4721,178.538 63.5,183.5C 63.5,187.833 63.5,192.167 63.5,196.5C 42.465,191.495 21.1317,188.828 -0.5,188.5C -0.5,183.833 -0.5,179.167 -0.5,174.5 Z"/></g>
<g><path style="opacity:1" fill="#f0546b" d="M 102.5,181.5 C 121.936,188.22 140.603,196.554 158.5,206.5C 156.467,210.565 154.467,214.565 152.5,218.5C 136.575,209.204 119.909,201.537 102.5,195.5C 102.5,190.833 102.5,186.167 102.5,181.5 Z"/></g>
<g><path style="opacity:1" fill="#ee3577" d="M 250.5,185.5 C 278.364,209.193 302.864,235.859 324,265.5C 324.278,264.584 324.778,263.918 325.5,263.5C 324.369,270.758 322.369,277.758 319.5,284.5C 306.056,265.864 291.556,247.864 276,230.5C 261.571,216.231 246.738,202.564 231.5,189.5C 237.5,186.751 243.834,185.418 250.5,185.5 Z"/></g>
<g><path style="opacity:1" fill="#ee2f7a" d="M 250.5,185.5 C 286.062,185.027 310.228,201.361 323,234.5C 325.24,244.023 326.073,253.69 325.5,263.5C 324.778,263.918 324.278,264.584 324,265.5C 302.864,235.859 278.364,209.193 250.5,185.5 Z"/></g>
<g><path style="opacity:1" fill="#f16066" d="M -0.5,188.5 C 21.1317,188.828 42.465,191.495 63.5,196.5C 63.5,201.167 63.5,205.833 63.5,210.5C 42.5954,204.72 21.2621,201.72 -0.5,201.5C -0.5,197.167 -0.5,192.833 -0.5,188.5 Z"/></g>
<g><path style="opacity:1" fill="#ef3c74" d="M 231.5,189.5 C 246.738,202.564 261.571,216.231 276,230.5C 291.556,247.864 306.056,265.864 319.5,284.5C 317.571,289.372 314.905,293.705 311.5,297.5C 287.038,258.861 256.372,225.694 219.5,198C 218.402,197.23 218.402,196.397 219.5,195.5C 222.947,192.562 226.947,190.562 231.5,189.5 Z"/></g>
<g><path style="opacity:1" fill="#f15a69" d="M 102.5,195.5 C 119.909,201.537 136.575,209.204 152.5,218.5C 151.373,222.804 150.373,227.137 149.5,231.5C 134.497,222.833 118.831,215.5 102.5,209.5C 102.5,204.833 102.5,200.167 102.5,195.5 Z"/></g>
<g><path style="opacity:1" fill="#e42a80" d="M 408.5,285.5 C 408.5,304.833 408.5,324.167 408.5,343.5C 396.99,313.145 382.323,284.478 364.5,257.5C 364.587,235.511 358.921,215.177 347.5,196.5C 347.435,196.062 347.601,195.728 348,195.5C 371.411,223.323 391.578,253.323 408.5,285.5 Z"/></g>
<g><path style="opacity:1" fill="#ef4272" d="M 219.5,195.5 C 218.402,196.397 218.402,197.23 219.5,198C 256.372,225.694 287.038,258.861 311.5,297.5C 309.212,301.456 306.212,304.789 302.5,307.5C 276.779,267.775 245.112,233.442 207.5,204.5C 210.929,200.738 214.929,197.738 219.5,195.5 Z"/></g>
<g><path style="opacity:1" fill="#f16664" d="M -0.5,201.5 C 21.2621,201.72 42.5954,204.72 63.5,210.5C 63.5,215.5 63.5,220.5 63.5,225.5C 42.4628,220.447 21.1294,217.447 -0.5,216.5C -0.5,211.5 -0.5,206.5 -0.5,201.5 Z"/></g>
<g><path style="opacity:1" fill="#cb298d" d="M 447.5,204.5 C 474.997,246.498 496.331,291.498 511.5,339.5C 511.5,363.167 511.5,386.833 511.5,410.5C 500.252,348.753 478.919,290.753 447.5,236.5C 447.5,225.833 447.5,215.167 447.5,204.5 Z"/></g>
<g><path style="opacity:1" fill="#f04870" d="M 207.5,204.5 C 245.112,233.442 276.779,267.775 302.5,307.5C 299.399,310.933 295.732,313.6 291.5,315.5C 267.156,275.818 236.156,242.151 198.5,214.5C 200.788,210.544 203.788,207.211 207.5,204.5 Z"/></g>
<g><path style="opacity:1" fill="#f16066" d="M 102.5,209.5 C 118.831,215.5 134.497,222.833 149.5,231.5C 148.503,236.142 147.503,240.809 146.5,245.5C 132.674,236.587 118.008,229.254 102.5,223.5C 102.5,218.833 102.5,214.167 102.5,209.5 Z"/></g>
<g><path style="opacity:1" fill="#f04e6d" d="M 198.5,214.5 C 236.156,242.151 267.156,275.818 291.5,315.5C 287.595,318.284 283.262,320.284 278.5,321.5C 270.465,311.146 262.631,300.48 255,289.5C 248.373,281.204 241.373,273.204 234,265.5C 220.42,251.996 206.253,239.329 191.5,227.5C 193.074,222.68 195.407,218.347 198.5,214.5 Z"/></g>
<g><path style="opacity:1" fill="#f26d61" d="M -0.5,216.5 C 21.1294,217.447 42.4628,220.447 63.5,225.5C 63.5,230.167 63.5,234.833 63.5,239.5C 42.5518,233.787 21.2185,230.453 -0.5,229.5C -0.5,225.167 -0.5,220.833 -0.5,216.5 Z"/></g>
<g><path style="opacity:1" fill="#f16664" d="M 102.5,223.5 C 118.008,229.254 132.674,236.587 146.5,245.5C 146.5,251.5 146.5,257.5 146.5,263.5C 132.442,254.469 117.775,246.469 102.5,239.5C 102.5,234.167 102.5,228.833 102.5,223.5 Z"/></g>
<g><path style="opacity:1" fill="#f0546b" d="M 191.5,227.5 C 206.253,239.329 220.42,251.996 234,265.5C 241.373,273.204 248.373,281.204 255,289.5C 262.631,300.48 270.465,311.146 278.5,321.5C 274.453,323.26 270.12,324.26 265.5,324.5C 263.983,324.489 262.816,323.823 262,322.5C 242.424,291.585 217.924,265.085 188.5,243C 187.62,241.644 187.286,240.144 187.5,238.5C 188.025,234.467 189.358,230.8 191.5,227.5 Z"/></g>
<g><path style="opacity:1" fill="#f2735f" d="M -0.5,229.5 C 21.2185,230.453 42.5518,233.787 63.5,239.5C 63.5,244.167 63.5,248.833 63.5,253.5C 42.6845,247.049 21.3511,243.382 -0.5,242.5C -0.5,238.167 -0.5,233.833 -0.5,229.5 Z"/></g>
<g><path style="opacity:0.996" fill="#d1298a" d="M 447.5,236.5 C 478.919,290.753 500.252,348.753 511.5,410.5C 511.5,418.833 511.5,427.167 511.5,435.5C 509.285,446.808 505.285,457.474 499.5,467.5C 495.41,399.462 478.076,335.129 447.5,274.5C 447.5,261.833 447.5,249.167 447.5,236.5 Z"/></g>
<g><path style="opacity:1" fill="#f26d61" d="M 102.5,239.5 C 117.775,246.469 132.442,254.469 146.5,263.5C 147.353,268.47 148.02,273.47 148.5,278.5C 148.631,279.239 148.464,279.906 148,280.5C 133.837,270.166 118.67,261.499 102.5,254.5C 102.5,249.5 102.5,244.5 102.5,239.5 Z"/></g>
<g><path style="opacity:1" fill="#f15a69" d="M 187.5,238.5 C 187.286,240.144 187.62,241.644 188.5,243C 217.924,265.085 242.424,291.585 262,322.5C 262.816,323.823 263.983,324.489 265.5,324.5C 260.025,325.489 254.358,325.822 248.5,325.5C 230.979,299.644 209.979,276.978 185.5,257.5C 185.334,252.489 185.501,247.489 186,242.5C 186.21,240.942 186.71,239.609 187.5,238.5 Z"/></g>
<g><path style="opacity:1" fill="#f2795d" d="M -0.5,242.5 C 21.3511,243.382 42.6845,247.049 63.5,253.5C 63.5,257.833 63.5,262.167 63.5,266.5C 42.5733,260.515 21.24,256.848 -0.5,255.5C -0.5,251.167 -0.5,246.833 -0.5,242.5 Z"/></g>
<g><path style="opacity:1" fill="#f27460" d="M 102.5,254.5 C 118.67,261.499 133.837,270.166 148,280.5C 148.464,279.906 148.631,279.239 148.5,278.5C 151.139,286.081 153.806,293.748 156.5,301.5C 156.631,302.239 156.464,302.906 156,303.5C 139.591,289.708 121.758,278.042 102.5,268.5C 102.5,263.833 102.5,259.167 102.5,254.5 Z"/></g>
<g><path style="opacity:1" fill="#f3805a" d="M -0.5,255.5 C 21.24,256.848 42.5733,260.515 63.5,266.5C 63.5,271.833 63.5,277.167 63.5,282.5C 42.6937,275.81 21.3603,272.143 -0.5,271.5C -0.5,266.167 -0.5,260.833 -0.5,255.5 Z"/></g>
<g><path style="opacity:1" fill="#f16267" d="M 185.5,257.5 C 209.979,276.978 230.979,299.644 248.5,325.5C 210.209,318.875 189.209,296.209 185.5,257.5 Z"/></g>
<g><path style="opacity:1" fill="#e92b7e" d="M 364.5,257.5 C 382.323,284.478 396.99,313.145 408.5,343.5C 408.5,348.167 408.5,352.833 408.5,357.5C 408.358,362.911 407.024,367.911 404.5,372.5C 394.755,339.345 380.921,308.011 363,278.5C 362.722,279.416 362.222,280.082 361.5,280.5C 362.664,272.847 363.664,265.18 364.5,257.5 Z"/></g>
<g><path style="opacity:1" fill="#f38658" d="M -0.5,271.5 C 21.3603,272.143 42.6937,275.81 63.5,282.5C 63.5,286.833 63.5,291.167 63.5,295.5C 42.8255,288.098 21.4922,283.765 -0.5,282.5C -0.5,278.833 -0.5,275.167 -0.5,271.5 Z"/></g>
<g><path style="opacity:1" fill="#f27a5d" d="M 102.5,268.5 C 121.758,278.042 139.591,289.708 156,303.5C 156.464,302.906 156.631,302.239 156.5,301.5C 166.586,321.256 180.92,337.256 199.5,349.5C 212.157,367.808 222.49,387.475 230.5,408.5C 225.833,408.5 221.167,408.5 216.5,408.5C 193.825,352.826 155.825,311.16 102.5,283.5C 102.5,278.5 102.5,273.5 102.5,268.5 Z"/></g>
<g><path style="opacity:0.998" fill="#d72987" d="M 447.5,274.5 C 478.076,335.129 495.41,399.462 499.5,467.5C 494.827,476.496 488.494,484.163 480.5,490.5C 479.477,433.053 468.477,377.719 447.5,324.5C 447.5,307.833 447.5,291.167 447.5,274.5 Z"/></g>
<g><path style="opacity:1" fill="#f37f5a" d="M 102.5,283.5 C 155.825,311.16 193.825,352.826 216.5,408.5C 210.794,408.829 205.128,408.495 199.5,407.5C 178.757,361.587 146.59,325.921 103,300.5C 102.501,294.843 102.334,289.176 102.5,283.5 Z"/></g>
<g><path style="opacity:1" fill="#f38c56" d="M -0.5,282.5 C 21.4922,283.765 42.8255,288.098 63.5,295.5C 63.5,300.5 63.5,305.5 63.5,310.5C 42.8641,302.839 21.5308,298.506 -0.5,297.5C -0.5,292.5 -0.5,287.5 -0.5,282.5 Z"/></g>
<g><path style="opacity:1" fill="#ed2e7a" d="M 404.5,372.5 C 402.476,378.212 399.643,383.545 396,388.5C 392.922,392.085 389.422,395.085 385.5,397.5C 377.13,366.774 365.463,337.441 350.5,309.5C 355.055,300.077 358.721,290.41 361.5,280.5C 362.222,280.082 362.722,279.416 363,278.5C 380.921,308.011 394.755,339.345 404.5,372.5 Z"/></g>
<g><path style="opacity:1" fill="#f49253" d="M -0.5,297.5 C 21.5308,298.506 42.8641,302.839 63.5,310.5C 63.5,315.167 63.5,319.833 63.5,324.5C 42.9394,316.388 21.6061,311.721 -0.5,310.5C -0.5,306.167 -0.5,301.833 -0.5,297.5 Z"/></g>
<g><path style="opacity:1" fill="#f48c65" d="M 102.5,152.5 C 102.5,156.833 102.5,161.167 102.5,165.5C 102.5,170.833 102.5,176.167 102.5,181.5C 102.5,186.167 102.5,190.833 102.5,195.5C 102.5,200.167 102.5,204.833 102.5,209.5C 102.5,214.167 102.5,218.833 102.5,223.5C 102.5,228.833 102.5,234.167 102.5,239.5C 102.5,244.5 102.5,249.5 102.5,254.5C 102.5,259.167 102.5,263.833 102.5,268.5C 102.5,273.5 102.5,278.5 102.5,283.5C 102.334,289.176 102.501,294.843 103,300.5C 146.59,325.921 178.757,361.587 199.5,407.5C 205.128,408.495 210.794,408.829 216.5,408.5C 221.167,408.5 225.833,408.5 230.5,408.5C 235.167,408.5 239.833,408.5 244.5,408.5C 249.167,408.5 253.833,408.5 258.5,408.5C 263.833,408.5 269.167,408.5 274.5,408.5C 279.167,408.5 283.833,408.5 288.5,408.5C 292.833,408.5 297.167,408.5 301.5,408.5C 306.167,408.5 310.833,408.5 315.5,408.5C 320.833,408.5 326.167,408.5 331.5,408.5C 336.167,408.5 340.833,408.5 345.5,408.5C 349.833,408.5 354.167,408.5 358.5,408.5C 289.833,409.833 221.167,409.833 152.5,408.5C 153.5,408.5 154.5,408.5 155.5,408.5C 160.5,408.5 165.5,408.5 170.5,408.5C 176.176,408.666 181.843,408.499 187.5,408C 168.087,369.089 140.087,337.922 103.5,314.5C 102.505,320.128 102.171,325.794 102.5,331.5C 102.5,336.833 102.5,342.167 102.5,347.5C 102.5,350.833 102.5,354.167 102.5,357.5C 101.167,289.167 101.167,220.833 102.5,152.5 Z"/></g>
<g><path style="opacity:1" fill="#ee3577" d="M 350.5,309.5 C 365.463,337.441 377.13,366.774 385.5,397.5C 381.901,401.076 377.568,403.41 372.5,404.5C 367.485,389.626 362.318,374.626 357,359.5C 351.815,347.135 346.648,334.801 341.5,322.5C 344.266,317.955 347.266,313.622 350.5,309.5 Z"/></g>
<g><path style="opacity:1" fill="#f49951" d="M -0.5,310.5 C 21.6061,311.721 42.9394,316.388 63.5,324.5C 63.5,330.167 63.5,335.833 63.5,341.5C 43.1346,332.409 21.8013,327.075 -0.5,325.5C -0.5,320.5 -0.5,315.5 -0.5,310.5 Z"/></g>
<g><path style="opacity:1" fill="#f38c56" d="M 170.5,408.5 C 154.976,376.636 132.309,350.969 102.5,331.5C 102.171,325.794 102.505,320.128 103.5,314.5C 140.087,337.922 168.087,369.089 187.5,408C 181.843,408.499 176.176,408.666 170.5,408.5 Z"/></g>
<g><path style="opacity:1" fill="#ef3c75" d="M 341.5,322.5 C 346.648,334.801 351.815,347.135 357,359.5C 362.318,374.626 367.485,389.626 372.5,404.5C 368.288,407.056 363.622,408.39 358.5,408.5C 352.071,382.543 343.071,357.543 331.5,333.5C 334.862,329.808 338.195,326.141 341.5,322.5 Z"/></g>
<g><path style="opacity:0.997" fill="#dd2a84" d="M 447.5,324.5 C 468.477,377.719 479.477,433.053 480.5,490.5C 475.019,495.746 468.686,499.746 461.5,502.5C 460.456,467.28 456.289,432.28 449,397.5C 447.761,391.185 445.928,385.185 443.5,379.5C 447.051,361.361 448.384,343.027 447.5,324.5 Z"/></g>
<g><path style="opacity:1" fill="#f49f4f" d="M -0.5,325.5 C 21.8013,327.075 43.1346,332.409 63.5,341.5C 63.5,346.5 63.5,351.5 63.5,356.5C 43.4045,346.248 22.0712,340.248 -0.5,338.5C -0.5,334.167 -0.5,329.833 -0.5,325.5 Z"/></g>
<g><path style="opacity:1" fill="#f49253" d="M 102.5,331.5 C 132.309,350.969 154.976,376.636 170.5,408.5C 165.5,408.5 160.5,408.5 155.5,408.5C 142.505,384.167 124.838,363.834 102.5,347.5C 102.5,342.167 102.5,336.833 102.5,331.5 Z"/></g>
<g><path style="opacity:1" fill="#ef4172" d="M 331.5,333.5 C 343.071,357.543 352.071,382.543 358.5,408.5C 354.167,408.5 349.833,408.5 345.5,408.5C 339.186,385.875 331.186,363.875 321.5,342.5C 324.808,339.529 328.141,336.529 331.5,333.5 Z"/></g>
<g><path style="opacity:1" fill="#f5a54c" d="M -0.5,338.5 C 22.0712,340.248 43.4045,346.248 63.5,356.5C 63.8333,360.5 64.1667,364.5 64.5,368.5C 64.719,369.675 64.3857,370.675 63.5,371.5C 43.6056,360.202 22.2723,353.535 -0.5,351.5C -0.5,347.167 -0.5,342.833 -0.5,338.5 Z"/></g>
<g><path style="opacity:1" fill="#f04770" d="M 321.5,342.5 C 331.186,363.875 339.186,385.875 345.5,408.5C 340.833,408.5 336.167,408.5 331.5,408.5C 325.886,388.325 318.886,368.658 310.5,349.5C 313.997,346.917 317.664,344.584 321.5,342.5 Z"/></g>
<g><path style="opacity:1" fill="#f2735f" d="M 199.5,349.5 C 206.902,352.871 214.235,356.204 221.5,359.5C 230.498,375.164 238.164,391.497 244.5,408.5C 239.833,408.5 235.167,408.5 230.5,408.5C 222.49,387.475 212.157,367.808 199.5,349.5 Z"/></g>
<g><path style="opacity:1" fill="#f04e6d" d="M 310.5,349.5 C 318.886,368.658 325.886,388.325 331.5,408.5C 326.167,408.5 320.833,408.5 315.5,408.5C 310.745,390.565 304.411,373.232 296.5,356.5C 301.101,354.199 305.768,351.866 310.5,349.5 Z"/></g>
<g><path style="opacity:1" fill="#f49a52" d="M 102.5,347.5 C 124.838,363.834 142.505,384.167 155.5,408.5C 154.5,408.5 153.5,408.5 152.5,408.5C 123.733,403.4 107.067,386.4 102.5,357.5C 102.5,354.167 102.5,350.833 102.5,347.5 Z"/></g>
<g><path style="opacity:1" fill="#f0546b" d="M 296.5,356.5 C 304.411,373.232 310.745,390.565 315.5,408.5C 310.833,408.5 306.167,408.5 301.5,408.5C 297.276,391.827 291.276,375.827 283.5,360.5C 287.833,359.167 292.167,357.833 296.5,356.5 Z"/></g>
<g><path style="opacity:1" fill="#f5ac4a" d="M -0.5,351.5 C 22.2723,353.535 43.6056,360.202 63.5,371.5C 64.3857,370.675 64.719,369.675 64.5,368.5C 66.5381,376.614 69.2047,384.614 72.5,392.5C 50.8404,376.513 26.5071,367.513 -0.5,365.5C -0.5,360.833 -0.5,356.167 -0.5,351.5 Z"/></g>
<g><path style="opacity:1" fill="#f26d61" d="M 221.5,359.5 C 227.235,360.58 232.901,361.913 238.5,363.5C 246.52,377.876 253.187,392.876 258.5,408.5C 253.833,408.5 249.167,408.5 244.5,408.5C 238.164,391.497 230.498,375.164 221.5,359.5 Z"/></g>
<g><path style="opacity:1" fill="#f15b69" d="M 283.5,360.5 C 291.276,375.827 297.276,391.827 301.5,408.5C 297.167,408.5 292.833,408.5 288.5,408.5C 283.677,393.033 277.677,378.033 270.5,363.5C 274.804,362.372 279.138,361.372 283.5,360.5 Z"/></g>
<g><path style="opacity:1" fill="#f16066" d="M 270.5,363.5 C 277.677,378.033 283.677,393.033 288.5,408.5C 283.833,408.5 279.167,408.5 274.5,408.5C 269.603,393.374 263.603,378.707 256.5,364.5C 261.203,364.563 265.87,364.229 270.5,363.5 Z"/></g>
<g><path style="opacity:1" fill="#f16664" d="M 238.5,363.5 C 244.471,364.241 250.471,364.575 256.5,364.5C 263.603,378.707 269.603,393.374 274.5,408.5C 269.167,408.5 263.833,408.5 258.5,408.5C 253.187,392.876 246.52,377.876 238.5,363.5 Z"/></g>
<g><path style="opacity:1" fill="#f5b248" d="M -0.5,365.5 C 26.5071,367.513 50.8404,376.513 72.5,392.5C 80.6143,408.947 92.281,422.281 107.5,432.5C 121.138,457.015 127.138,483.349 125.5,511.5C 120.167,511.5 114.833,511.5 109.5,511.5C 111.819,454.295 87.152,413.462 35.5,389C 23.9443,384.278 11.9443,381.444 -0.5,380.5C -0.5,375.5 -0.5,370.5 -0.5,365.5 Z"/></g>
<g><path style="opacity:0.996" fill="#e32a80" d="M 443.5,379.5 C 445.928,385.185 447.761,391.185 449,397.5C 456.289,432.28 460.456,467.28 461.5,502.5C 453.763,506.745 445.429,509.411 436.5,510.5C 437.314,479.232 434.814,448.232 429,417.5C 428.963,415.026 428.13,413.026 426.5,411.5C 433.724,401.722 439.391,391.055 443.5,379.5 Z"/></g>
<g><path style="opacity:1" fill="#f6b845" d="M -0.5,380.5 C 11.9443,381.444 23.9443,384.278 35.5,389C 87.152,413.462 111.819,454.295 109.5,511.5C 105.167,511.5 100.833,511.5 96.5,511.5C 98.9781,466.956 81.6448,432.456 44.5,408C 30.4933,400.053 15.4933,395.22 -0.5,393.5C -0.5,389.167 -0.5,384.833 -0.5,380.5 Z"/></g>
<g><path style="opacity:1" fill="#f6be43" d="M -0.5,393.5 C 15.4933,395.22 30.4933,400.053 44.5,408C 81.6448,432.456 98.9781,466.956 96.5,511.5C 92.1667,511.5 87.8333,511.5 83.5,511.5C 86.1365,470.603 70.1365,439.437 35.5,418C 24.2322,411.855 12.2322,408.022 -0.5,406.5C -0.5,402.167 -0.5,397.833 -0.5,393.5 Z"/></g>
<g><path style="opacity:0.998" fill="#f7c441" d="M -0.5,406.5 C 12.2322,408.022 24.2322,411.855 35.5,418C 70.1365,439.437 86.1365,470.603 83.5,511.5C 80.8333,511.5 78.1667,511.5 75.5,511.5C 73.5,510.833 71.5,510.167 69.5,509.5C 72.796,474.261 59.1293,447.428 28.5,429C 19.2254,424.519 9.55876,421.353 -0.5,419.5C -0.5,415.167 -0.5,410.833 -0.5,406.5 Z"/></g>
<g><path style="opacity:0.997" fill="#f7ca3e" d="M -0.5,419.5 C 9.55876,421.353 19.2254,424.519 28.5,429C 59.1293,447.428 72.796,474.261 69.5,509.5C 64.3935,508.576 59.3935,507.242 54.5,505.5C 56.0327,474.082 42.366,451.915 13.5,439C 9.27848,437.362 4.94515,436.195 0.5,435.5C 0.166667,435.5 -0.166667,435.5 -0.5,435.5C -0.5,430.167 -0.5,424.833 -0.5,419.5 Z"/></g>
<g><path style="opacity:1" fill="#eb2a7c" d="M 426.5,411.5 C 428.13,413.026 428.963,415.026 429,417.5C 434.814,448.232 437.314,479.232 436.5,510.5C 435.833,510.5 435.5,510.833 435.5,511.5C 427.5,511.5 419.5,511.5 411.5,511.5C 412.106,484.585 410.106,457.919 405.5,431.5C 413.132,425.536 420.132,418.869 426.5,411.5 Z"/></g>
<g><path style="opacity:1" fill="#ee2e79" d="M 405.5,431.5 C 410.106,457.919 412.106,484.585 411.5,511.5C 407.167,511.5 402.833,511.5 398.5,511.5C 398.955,487.329 397.289,463.329 393.5,439.5C 393.863,438.817 394.196,438.15 394.5,437.5C 398.034,435.234 401.7,433.234 405.5,431.5 Z"/></g>
<g><path style="opacity:0.992" fill="#f7d13c" d="M 0.5,435.5 C 4.94515,436.195 9.27848,437.362 13.5,439C 42.366,451.915 56.0327,474.082 54.5,505.5C 50.1362,503.656 46.1362,501.323 42.5,498.5C 40.2244,473.609 27.2244,457.275 3.5,449.5C 1.55779,445.061 0.557794,440.394 0.5,435.5 Z"/></g>
<g><path style="opacity:1" fill="#ee3577" d="M 394.5,437.5 C 394.196,438.15 393.863,438.817 393.5,439.5C 397.289,463.329 398.955,487.329 398.5,511.5C 393.5,511.5 388.5,511.5 383.5,511.5C 383.676,488.643 382.009,465.976 378.5,443.5C 383.911,441.697 389.244,439.697 394.5,437.5 Z"/></g>
<g><path style="opacity:1" fill="#f5ab4a" d="M 107.5,432.5 C 113.741,436.12 120.075,439.453 126.5,442.5C 135.997,464.48 139.997,487.48 138.5,511.5C 134.167,511.5 129.833,511.5 125.5,511.5C 127.138,483.349 121.138,457.015 107.5,432.5 Z"/></g>
<g><path style="opacity:1" fill="#f5a54d" d="M 126.5,442.5 C 131.994,443.674 137.327,445.007 142.5,446.5C 149.838,467.535 152.838,489.202 151.5,511.5C 147.167,511.5 142.833,511.5 138.5,511.5C 139.997,487.48 135.997,464.48 126.5,442.5 Z"/></g>
<g><path style="opacity:1" fill="#ef3c74" d="M 378.5,443.5 C 382.009,465.976 383.676,488.643 383.5,511.5C 378.833,511.5 374.167,511.5 369.5,511.5C 370.265,489.797 369.265,468.131 366.5,446.5C 370.385,445.51 374.385,444.51 378.5,443.5 Z"/></g>
<g><path style="opacity:1" fill="#f49f4f" d="M 142.5,446.5 C 147.13,447.229 151.797,447.563 156.5,447.5C 163.099,468.293 165.766,489.627 164.5,511.5C 160.167,511.5 155.833,511.5 151.5,511.5C 152.838,489.202 149.838,467.535 142.5,446.5 Z"/></g>
<g><path style="opacity:1" fill="#ef4172" d="M 366.5,446.5 C 369.265,468.131 370.265,489.797 369.5,511.5C 365.167,511.5 360.833,511.5 356.5,511.5C 357.012,490.086 356.012,468.752 353.5,447.5C 357.857,447.414 362.19,447.08 366.5,446.5 Z"/></g>
<g><path style="opacity:1" fill="#f49851" d="M 156.5,447.5 C 161.833,447.5 167.167,447.5 172.5,447.5C 178.777,468.43 181.11,489.764 179.5,511.5C 174.5,511.5 169.5,511.5 164.5,511.5C 165.766,489.627 163.099,468.293 156.5,447.5 Z"/></g>
<g><path style="opacity:1" fill="#f49253" d="M 172.5,447.5 C 177.167,447.5 181.833,447.5 186.5,447.5C 191.585,468.516 193.918,489.85 193.5,511.5C 188.833,511.5 184.167,511.5 179.5,511.5C 181.11,489.764 178.777,468.43 172.5,447.5 Z"/></g>
<g><path style="opacity:1" fill="#f38c56" d="M 186.5,447.5 C 191.5,447.5 196.5,447.5 201.5,447.5C 206.504,468.536 208.504,489.869 207.5,511.5C 202.833,511.5 198.167,511.5 193.5,511.5C 193.918,489.85 191.585,468.516 186.5,447.5 Z"/></g>
<g><path style="opacity:1" fill="#f38658" d="M 201.5,447.5 C 205.5,447.5 209.5,447.5 213.5,447.5C 218.035,468.58 220.035,489.913 219.5,511.5C 215.5,511.5 211.5,511.5 207.5,511.5C 208.504,489.869 206.504,468.536 201.5,447.5 Z"/></g>
<g><path style="opacity:1" fill="#f3805a" d="M 213.5,447.5 C 218.5,447.5 223.5,447.5 228.5,447.5C 233.533,468.496 235.533,489.829 234.5,511.5C 229.5,511.5 224.5,511.5 219.5,511.5C 220.035,489.913 218.035,468.58 213.5,447.5 Z"/></g>
<g><path style="opacity:1" fill="#f2795d" d="M 228.5,447.5 C 233.167,447.5 237.833,447.5 242.5,447.5C 246.808,468.613 248.475,489.946 247.5,511.5C 243.167,511.5 238.833,511.5 234.5,511.5C 235.533,489.829 233.533,468.496 228.5,447.5 Z"/></g>
<g><path style="opacity:1" fill="#f2735f" d="M 242.5,447.5 C 246.833,447.5 251.167,447.5 255.5,447.5C 259.868,468.594 261.534,489.927 260.5,511.5C 256.167,511.5 251.833,511.5 247.5,511.5C 248.475,489.946 246.808,468.613 242.5,447.5 Z"/></g>
<g><path style="opacity:1" fill="#f26d61" d="M 255.5,447.5 C 260.167,447.5 264.833,447.5 269.5,447.5C 273.038,468.721 274.371,490.054 273.5,511.5C 269.167,511.5 264.833,511.5 260.5,511.5C 261.534,489.927 259.868,468.594 255.5,447.5 Z"/></g>
<g><path style="opacity:1" fill="#f16664" d="M 269.5,447.5 C 274.5,447.5 279.5,447.5 284.5,447.5C 288.155,468.662 289.821,489.996 289.5,511.5C 284.167,511.5 278.833,511.5 273.5,511.5C 274.371,490.054 273.038,468.721 269.5,447.5 Z"/></g>
<g><path style="opacity:1" fill="#f16066" d="M 284.5,447.5 C 288.833,447.5 293.167,447.5 297.5,447.5C 301.304,468.614 302.97,489.948 302.5,511.5C 298.167,511.5 293.833,511.5 289.5,511.5C 289.821,489.996 288.155,468.662 284.5,447.5 Z"/></g>
<g><path style="opacity:1" fill="#f15a68" d="M 297.5,447.5 C 302.167,447.5 306.833,447.5 311.5,447.5C 314.517,468.721 315.85,490.054 315.5,511.5C 311.167,511.5 306.833,511.5 302.5,511.5C 302.97,489.948 301.304,468.614 297.5,447.5 Z"/></g>
<g><path style="opacity:1" fill="#f0546b" d="M 311.5,447.5 C 315.833,447.5 320.167,447.5 324.5,447.5C 327.711,468.706 329.045,490.04 328.5,511.5C 324.167,511.5 319.833,511.5 315.5,511.5C 315.85,490.054 314.517,468.721 311.5,447.5 Z"/></g>
<g><path style="opacity:1" fill="#f04e6d" d="M 324.5,447.5 C 329.5,447.5 334.5,447.5 339.5,447.5C 342.978,468.641 344.311,489.974 343.5,511.5C 338.5,511.5 333.5,511.5 328.5,511.5C 329.045,490.04 327.711,468.706 324.5,447.5 Z"/></g>
<g><path style="opacity:1" fill="#ef476f" d="M 339.5,447.5 C 344.167,447.5 348.833,447.5 353.5,447.5C 356.012,468.752 357.012,490.086 356.5,511.5C 352.167,511.5 347.833,511.5 343.5,511.5C 344.311,489.974 342.978,468.641 339.5,447.5 Z"/></g>
<g><path style="opacity:0.979" fill="#f8d739" d="M 3.5,449.5 C 27.2244,457.275 40.2244,473.609 42.5,498.5C 23.2546,487.242 10.2546,470.909 3.5,449.5 Z"/></g>
</svg>
