<?xml version="1.0" encoding="UTF-8"?>
<!DOCTYPE svg PUBLIC "-//W3C//DTD SVG 1.1//EN" "http://www.w3.org/Graphics/SVG/1.1/DTD/svg11.dtd">
<svg xmlns="http://www.w3.org/2000/svg" version="1.1" width="1389px" height="1616px" style="shape-rendering:geometricPrecision; text-rendering:geometricPrecision; image-rendering:optimizeQuality; fill-rule:evenodd; clip-rule:evenodd" xmlns:xlink="http://www.w3.org/1999/xlink">
<g><path style="opacity:0.983" fill="#fefefe" d="M 474.5,-0.5 C 486.833,-0.5 499.167,-0.5 511.5,-0.5C 463.07,49.0927 415.904,99.7594 370,151.5C 353.355,170.474 337.855,190.307 323.5,211C 358.993,234.918 395.326,257.585 432.5,279C 485.858,309.682 539.858,339.349 594.5,368C 625.603,367.679 653.27,377.012 677.5,396C 684.703,404.201 692.203,412.035 700,419.5C 794.543,409.494 888.71,396.661 982.5,381C 998.247,378.151 1013.91,374.984 1029.5,371.5C 1022.45,344.851 1014.28,318.518 1005,292.5C 987.796,244.266 969.629,196.433 950.5,149C 963.525,150.67 976.192,154.003 988.5,159C 1035.64,179.224 1079.64,204.558 1120.5,235C 1164.19,266.688 1197.69,306.854 1221,355.5C 1236.3,389.272 1242.3,424.605 1239,461.5C 1235.34,488.138 1224.68,511.471 1207,531.5C 1201.53,537.969 1195.7,544.136 1189.5,550C 1258.1,561.961 1301.76,601.461 1320.5,668.5C 1314.2,682.259 1307.54,695.759 1300.5,709C 1309.77,737.02 1311.6,765.52 1306,794.5C 1304.28,804.273 1302.11,813.94 1299.5,823.5C 1324.27,876.64 1316.27,924.14 1275.5,966C 1267.21,973.793 1258.21,980.626 1248.5,986.5C 1242.09,1008.56 1234.59,1030.22 1226,1051.5C 1219.54,1066.94 1210.7,1080.78 1199.5,1093C 1194.04,1097.78 1188.04,1101.78 1181.5,1105C 1151.13,1117.68 1119.79,1127.35 1087.5,1134C 1065.55,1138.82 1043.55,1143.32 1021.5,1147.5C 1021.1,1169.01 1025.27,1189.68 1034,1209.5C 1037.81,1218.45 1042.14,1227.11 1047,1235.5C 1077.09,1274.26 1111.26,1309.09 1149.5,1340C 1167.42,1353.91 1186.42,1366.24 1206.5,1377C 1267.03,1415.43 1327.69,1453.59 1388.5,1491.5C 1388.5,1491.83 1388.5,1492.17 1388.5,1492.5C 1363.16,1492.67 1337.83,1492.5 1312.5,1492C 1269.16,1490.56 1225.82,1489.23 1182.5,1488C 1188.33,1491.08 1194,1494.41 1199.5,1498C 1261.81,1528.82 1323.81,1560.16 1385.5,1592C 1300.8,1601.24 1216.14,1609.07 1131.5,1615.5C 1093.17,1615.5 1054.83,1615.5 1016.5,1615.5C 857.015,1610.2 701.015,1584.03 548.5,1537C 567.667,1558.83 586.833,1580.67 606,1602.5C 606.667,1603.17 606.667,1603.83 606,1604.5C 552.904,1594.84 499.737,1585.34 446.5,1576C 385.524,1564.01 326.857,1545.01 270.5,1519C 258.421,1512.55 246.588,1505.71 235,1498.5C 232.443,1527.85 229.776,1557.18 227,1586.5C 208.333,1562.5 189.667,1538.5 171,1514.5C 103.854,1426.56 70.6871,1326.89 71.5,1215.5C 72.151,1147.93 82.651,1081.93 103,1017.5C 116.814,974.724 131.814,932.39 148,890.5C 168.151,841.014 193.318,794.514 223.5,751C 166.783,723.619 122.95,682.452 92,627.5C 63.2949,574.717 46.2949,518.383 41,458.5C 37.668,417.188 35.0014,375.855 33,334.5C 69.3333,361.5 105.667,388.5 142,415.5C 142.667,414.833 142.667,414.167 142,413.5C 112.932,378.697 90.9319,339.697 76,296.5C 66.2641,264.023 67.5975,232.023 80,200.5C 99.7653,153.4 130.599,115.234 172.5,86C 240.009,41.0484 314.342,14.7151 395.5,7C 421.919,3.77239 448.253,1.27239 474.5,-0.5 Z"/></g>
<g><path style="opacity:1" fill="#010000" d="M 203.5,1424.5 C 203.44,1423.96 203.107,1423.62 202.5,1423.5C 201.526,1425.74 201.192,1428.08 201.5,1430.5C 200.038,1448.83 198.538,1467.16 197,1485.5C 149.632,1422.44 121.632,1351.44 113,1272.5C 105.822,1198.31 112.155,1125.31 132,1053.5C 147.213,1003.53 164.213,954.193 183,905.5C 208.511,841.924 243.011,784.09 286.5,732C 213.983,713.804 159.816,671.971 124,606.5C 92.3015,546.433 76.6348,482.433 77,414.5C 105.366,436.602 134.866,457.102 165.5,476C 200.556,496.014 238.223,507.18 278.5,509.5C 280.628,510.629 282.961,510.796 285.5,510C 284.956,509.283 284.289,508.783 283.5,508.5C 241.687,469.857 202.853,428.523 167,384.5C 148.907,361.338 133.574,336.338 121,309.5C 111.01,287.55 106.676,264.55 108,240.5C 118.633,196.884 141.133,160.718 175.5,132C 219.554,97.3063 268.887,72.6396 323.5,58C 336.448,54.8466 349.448,51.8466 362.5,49C 390.808,43.8349 419.142,39.1682 447.5,35C 420.795,58.707 393.795,82.0403 366.5,105C 342.122,127.367 319.956,151.534 300,177.5C 291.524,188.78 284.858,201.113 280,214.5C 279.163,218.295 279.496,221.961 281,225.5C 288.04,232.264 295.54,238.431 303.5,244C 356.005,278.093 409.671,310.427 464.5,341C 504.181,363.175 544.181,384.842 584.5,406C 605.665,405.257 625.665,409.591 644.5,419C 649.923,422.419 654.756,426.585 659,431.5C 666.462,440.631 674.295,449.464 682.5,458C 794.861,448.33 906.528,433.33 1017.5,413C 1034.26,409.728 1050.59,405.061 1066.5,399C 1067.7,398.097 1068.53,396.931 1069,395.5C 1070.41,381.563 1069.08,367.897 1065,354.5C 1058.58,332.558 1050.58,311.224 1041,290.5C 1024.5,257.832 1007.84,225.499 991,193.5C 1016.83,209.333 1042.67,225.167 1068.5,241C 1108.62,268.124 1142.46,301.624 1170,341.5C 1186.18,366.213 1196.52,393.213 1201,422.5C 1205.75,449.768 1200.41,474.768 1185,497.5C 1175.91,509.926 1165.41,521.093 1153.5,531C 1119.49,557.025 1082.82,579.025 1043.5,597C 1046.13,600.316 1049.3,602.816 1053,604.5C 1074.04,600.063 1095.2,599.396 1116.5,602.5C 1117.5,602.333 1118.5,602.167 1119.5,602C 1127.27,592.734 1137.27,588.068 1149.5,588C 1194.41,582.517 1231.58,596.684 1261,630.5C 1269.52,641.217 1275.69,653.217 1279.5,666.5C 1272.71,679.929 1265.04,692.762 1256.5,705C 1270.68,732.036 1274.51,760.536 1268,790.5C 1265.31,803.233 1261.81,815.733 1257.5,828C 1263.84,838.182 1269.01,849.015 1273,860.5C 1279.76,897.233 1267.92,926.4 1237.5,948C 1230.59,952.566 1223.43,956.732 1216,960.5C 1208.25,990.76 1197.91,1020.09 1185,1048.5C 1181.69,1054.95 1177.53,1060.78 1172.5,1066C 1166.25,1070.09 1159.59,1073.42 1152.5,1076C 1098.4,1093.69 1043.07,1106.02 986.5,1113C 980.363,1142.07 981.53,1170.9 990,1199.5C 996.092,1218.68 1004.09,1237.02 1014,1254.5C 1055.83,1311 1106,1358.5 1164.5,1397C 1201.73,1416.78 1239.4,1435.78 1277.5,1454C 1202.65,1452.39 1128.32,1445.73 1054.5,1434C 1091.86,1471.32 1133.19,1503.32 1178.5,1530C 1202.68,1542.59 1227.01,1554.92 1251.5,1567C 1029.85,1591.43 811.846,1573.09 597.5,1512C 536.189,1494.09 476.689,1471.59 419,1444.5C 447.454,1478.81 476.621,1512.81 506.5,1546.5C 425.287,1537.21 347.954,1514.38 274.5,1478C 248.407,1463.41 224.74,1445.58 203.5,1424.5 Z"/></g>
<g><path style="opacity:1" fill="#fdfdfd" d="M 467.5,516.5 C 402.495,479.492 341.829,436.325 285.5,387C 253.178,358.363 225.678,325.863 203,289.5C 192.424,271.104 185.424,251.438 182,230.5C 180.602,217.268 181.602,204.268 185,191.5C 186.373,188.588 187.873,185.754 189.5,183C 172.311,199.141 160.478,218.975 154,242.5C 152.99,252.952 153.656,263.286 156,273.5C 163.856,296.548 174.856,317.881 189,337.5C 204.707,358.899 221.374,379.565 239,399.5C 276.291,439.46 315.457,477.294 356.5,513C 356.272,513.399 355.938,513.565 355.5,513.5C 347.814,512.914 340.147,512.081 332.5,511C 285.6,470.1 242.1,425.933 202,378.5C 186.187,358.879 171.854,338.213 159,316.5C 147.341,296.856 140.507,275.689 138.5,253C 140.62,233.31 147.12,215.143 158,198.5C 177.337,170.83 201.504,148.33 230.5,131C 265.427,110.697 302.427,95.6968 341.5,86C 315.113,111.043 290.946,137.876 269,166.5C 229.656,230.947 240.156,285.78 300.5,331C 301.167,331.667 301.833,331.667 302.5,331C 285.34,310.675 274.34,287.341 269.5,261C 269.833,259.833 270.167,258.667 270.5,257.5C 304.134,282.324 339.134,305.158 375.5,326C 429.682,357.261 484.349,387.761 539.5,417.5C 520.007,425.826 503.507,438.159 490,454.5C 484.378,462.411 480.378,471.078 478,480.5C 476.739,490.854 475.405,501.187 474,511.5C 471.672,512.999 469.505,514.666 467.5,516.5 Z"/></g>
<g><path style="opacity:1" fill="#c7c9ca" d="M 467.5,516.5 C 456.114,526.589 446.614,538.256 439,551.5C 414.173,532.169 386.34,519.502 355.5,513.5C 355.938,513.565 356.272,513.399 356.5,513C 315.457,477.294 276.291,439.46 239,399.5C 221.374,379.565 204.707,358.899 189,337.5C 174.856,317.881 163.856,296.548 156,273.5C 153.656,263.286 152.99,252.952 154,242.5C 160.478,218.975 172.311,199.141 189.5,183C 187.873,185.754 186.373,188.588 185,191.5C 181.602,204.268 180.602,217.268 182,230.5C 185.424,251.438 192.424,271.104 203,289.5C 225.678,325.863 253.178,358.363 285.5,387C 341.829,436.325 402.495,479.492 467.5,516.5 Z"/></g>
<g><path style="opacity:1" fill="#fcfcfc" d="M 1005.5,573.5 C 1005.5,572.5 1005.5,571.5 1005.5,570.5C 1050.08,552.384 1091.42,528.884 1129.5,500C 1140.88,490.302 1150.38,479.135 1158,466.5C 1164.5,443.578 1163.5,420.911 1155,398.5C 1153.01,413.103 1148.01,427.437 1140,441.5C 1122.67,465.085 1101.17,483.918 1075.5,498C 1046.83,514.052 1016.83,526.885 985.5,536.5C 958.757,506.652 926.423,498.152 888.5,511C 882.411,513.793 876.578,516.959 871,520.5C 848.704,505.438 824.538,494.271 798.5,487C 785.238,483.684 771.904,480.684 758.5,478C 845.554,468.135 932.221,455.468 1018.5,440C 1033.94,437.178 1049.1,433.345 1064,428.5C 1064.5,428.667 1065,428.833 1065.5,429C 1053.12,449.716 1036.45,466.049 1015.5,478C 1078.09,462.362 1104.26,422.529 1094,358.5C 1085.53,327.412 1074.53,297.412 1061,268.5C 1091.25,290.086 1117.59,315.753 1140,345.5C 1157.02,368.556 1168.36,394.223 1174,422.5C 1178.9,446.571 1173.9,468.237 1159,487.5C 1149.09,499.409 1137.93,509.909 1125.5,519C 1091.24,542.642 1054.9,562.975 1016.5,580C 1013.5,580.667 1010.5,580.667 1007.5,580C 1006.6,577.913 1005.94,575.746 1005.5,573.5 Z"/></g>
<g><path style="opacity:1" fill="#c7c9ca" d="M 1005.5,573.5 C 1000.67,560.18 994.006,547.846 985.5,536.5C 1016.83,526.885 1046.83,514.052 1075.5,498C 1101.17,483.918 1122.67,465.085 1140,441.5C 1148.01,427.437 1153.01,413.103 1155,398.5C 1163.5,420.911 1164.5,443.578 1158,466.5C 1150.38,479.135 1140.88,490.302 1129.5,500C 1091.42,528.884 1050.08,552.384 1005.5,570.5C 1005.5,571.5 1005.5,572.5 1005.5,573.5 Z"/></g>
<g><path style="opacity:1" fill="#ec1b22" d="M 739.5,514.5 C 742.625,513.521 745.958,513.187 749.5,513.5C 774.123,513.925 798.457,516.759 822.5,522C 853.321,531.413 882.988,543.579 911.5,558.5C 923.784,566.45 934.117,576.45 942.5,588.5C 918.253,597.121 896.253,609.621 876.5,626C 861.123,639.284 853.123,656.117 852.5,676.5C 848.865,708.323 854.865,738.323 870.5,766.5C 811.195,774.995 759.195,798.828 714.5,838C 705.586,847.075 697.252,856.575 689.5,866.5C 687.747,868.223 685.747,869.723 683.5,871C 682.304,871.654 682.304,872.154 683.5,872.5C 699.949,865.48 716.282,859.146 732.5,853.5C 704.808,902.724 682.642,954.391 666,1008.5C 660.596,1024.71 655.596,1041.05 651,1057.5C 649.873,1063.75 650.54,1069.75 653,1075.5C 654.451,1077.46 656.284,1078.8 658.5,1079.5C 655.082,1080.1 651.749,1079.27 648.5,1077C 640.409,1069.65 635.909,1060.48 635,1049.5C 634.032,1037.07 634.698,1024.74 637,1012.5C 645.223,991.834 654.223,971.501 664,951.5C 676.194,924.011 677.527,896.011 668,867.5C 656.42,837.302 638.254,811.968 613.5,791.5C 590.605,766.297 563.272,747.297 531.5,734.5C 529.485,733.076 527.152,732.41 524.5,732.5C 525.092,735.691 526.259,738.691 528,741.5C 544.957,765.733 559.623,791.4 572,818.5C 581.411,840.562 586.578,863.562 587.5,887.5C 587.239,935.932 563.239,964.432 515.5,973C 502.485,974.491 491.152,970.824 481.5,962C 465.527,944.904 454.027,925.07 447,902.5C 437.048,871.661 429.382,840.328 424,808.5C 406.684,854.31 402.351,901.31 411,949.5C 413.218,958.375 416.052,967.042 419.5,975.5C 419.376,976.107 419.043,976.44 418.5,976.5C 395.809,956.767 376.643,934.101 361,908.5C 360.536,909.094 360.369,909.761 360.5,910.5C 364.866,948.304 374.366,984.637 389,1019.5C 371.177,1006.26 353.177,993.255 335,980.5C 334.503,983.146 334.336,985.813 334.5,988.5C 335.534,1058.75 346.368,1127.42 367,1194.5C 372.574,1211.4 379.407,1227.73 387.5,1243.5C 340.654,1243.87 296.321,1233.37 254.5,1212C 238.823,1203.8 223.823,1194.63 209.5,1184.5C 207.537,1183.04 205.704,1181.37 204,1179.5C 207.365,1307.07 263.198,1403.9 371.5,1470C 379.707,1474.6 388.041,1478.94 396.5,1483C 396.272,1483.4 395.938,1483.57 395.5,1483.5C 327.49,1463.93 268.99,1428.93 220,1378.5C 161.13,1310.71 140.13,1232.38 157,1143.5C 180.264,1012.16 235.597,896.83 323,797.5C 369.742,747.075 423.576,706.242 484.5,675C 556.187,641.375 631.521,629.042 710.5,638C 741.594,640.515 771.927,646.682 801.5,656.5C 801.833,656.333 802.167,656.167 802.5,656C 797.386,650.617 791.719,645.95 785.5,642C 802.403,637.261 814.07,626.761 820.5,610.5C 820.167,610.167 819.833,609.833 819.5,609.5C 807.891,618.092 794.891,621.926 780.5,621C 777.99,620.624 775.657,619.79 773.5,618.5C 794.967,611.197 805.801,596.197 806,573.5C 791.929,595.566 772.429,602.399 747.5,594C 734.149,589.158 721.149,583.492 708.5,577C 678.334,559.754 648.667,541.754 619.5,523C 585.129,503.045 553.795,506.878 525.5,534.5C 514.807,542.502 506.973,552.835 502,565.5C 497.56,576.891 494.726,588.558 493.5,600.5C 491.954,562.345 496.787,525.011 508,488.5C 514.064,476.436 522.897,466.936 534.5,460C 560.733,444.851 588.733,439.851 618.5,445C 623.122,446.427 627.455,448.427 631.5,451C 670.045,488.095 713.711,517.428 762.5,539C 754.995,530.662 747.328,522.495 739.5,514.5 Z"/></g>
<g><path style="opacity:1" fill="#f58a8e" d="M 581.5,455.5 C 591.172,455.334 600.839,455.5 610.5,456C 614.608,457.027 618.608,458.36 622.5,460C 631.167,467.333 639.833,474.667 648.5,482C 659.876,490.023 671.876,497.023 684.5,503C 676.097,504.202 668.097,502.869 660.5,499C 646.664,492.254 633.664,484.254 621.5,475C 594.147,462.277 566.813,462.443 539.5,475.5C 543.514,470.771 548.847,466.938 555.5,464C 564.077,460.531 572.744,457.697 581.5,455.5 Z"/></g>
<g><path style="opacity:1" fill="#a01217" d="M 130.5,501.5 C 129.475,501.897 129.308,502.563 130,503.5C 181.484,563.978 244.318,608.478 318.5,637C 341.951,644.963 365.951,650.463 390.5,653.5C 385.275,655.316 379.942,657.149 374.5,659C 358.183,659.059 342.183,656.726 326.5,652C 265.424,631.476 210.424,600.642 161.5,559.5C 193.136,605.964 232.803,644.797 280.5,676C 293.549,683.525 306.882,690.525 320.5,697C 318.833,698.667 317.167,700.333 315.5,702C 253.577,691.389 205.41,659.889 171,607.5C 149.988,574.145 135.654,538.145 128,499.5C 128.995,500.066 129.828,500.733 130.5,501.5 Z"/></g>
<g><path style="opacity:1" fill="#eb1b22" d="M 130.5,501.5 C 190.038,537.507 254.538,552.174 324,545.5C 368.772,545.196 407.605,560.029 440.5,590C 454.508,602.245 466.508,616.079 476.5,631.5C 460.644,636.315 444.644,640.815 428.5,645C 415.742,647.533 403.075,650.366 390.5,653.5C 365.951,650.463 341.951,644.963 318.5,637C 244.318,608.478 181.484,563.978 130,503.5C 129.308,502.563 129.475,501.897 130.5,501.5 Z"/></g>
<g><path style="opacity:1" fill="#646464" d="M 283.5,508.5 C 284.289,508.783 284.956,509.283 285.5,510C 282.961,510.796 280.628,510.629 278.5,509.5C 280.415,509.784 282.081,509.451 283.5,508.5 Z"/></g>
<g><path style="opacity:1" fill="#6a0c10" d="M 749.5,513.5 C 745.958,513.187 742.625,513.521 739.5,514.5C 738.711,514.217 738.044,513.717 737.5,513C 741.689,512.188 745.689,512.355 749.5,513.5 Z"/></g>
<g><path style="opacity:1" fill="#f5898d" d="M 765.5,524.5 C 812.819,527.103 856.819,540.936 897.5,566C 866.12,560.153 835.453,551.486 805.5,540C 792.246,534.536 778.913,529.37 765.5,524.5 Z"/></g>
<g><path style="opacity:1" fill="#a01217" d="M 493.5,600.5 C 494.726,588.558 497.56,576.891 502,565.5C 506.973,552.835 514.807,542.502 525.5,534.5C 522.336,537.833 519.336,541.333 516.5,545C 525.39,542.037 534.39,539.037 543.5,536C 549.697,534.114 556.03,533.28 562.5,533.5C 559.466,544.7 556.966,556.034 555,567.5C 554.553,584.525 555.053,601.525 556.5,618.5C 536.008,620.904 515.674,624.237 495.5,628.5C 494.966,619.154 494.299,609.82 493.5,600.5 Z"/></g>
<g><path style="opacity:1" fill="#6c0c10" d="M 588.5,538.5 C 591.778,539.809 594.778,541.642 597.5,544C 585.886,558.958 581.719,575.791 585,594.5C 586.674,601.687 588.841,608.687 591.5,615.5C 581.116,615.461 570.783,616.128 560.5,617.5C 562.725,588.481 572.059,562.148 588.5,538.5 Z"/></g>
<g><path style="opacity:1" fill="#e71a21" d="M 963.5,582.5 C 946.365,562.918 925.031,549.918 899.5,543.5C 894.51,541.737 894.51,540.571 899.5,540C 923.778,537.426 944.778,544.426 962.5,561C 968.719,566.717 974.386,572.883 979.5,579.5C 974.158,580.502 968.825,581.502 963.5,582.5 Z"/></g>
<g><path style="opacity:1" fill="#a21318" d="M 899.5,543.5 C 925.031,549.918 946.365,562.918 963.5,582.5C 956.6,584.462 949.6,586.462 942.5,588.5C 934.117,576.45 923.784,566.45 911.5,558.5C 909.31,552.579 905.31,547.579 899.5,543.5 Z"/></g>
<g><path style="opacity:1" fill="#f5898d" d="M 220.5,550.5 C 220.56,549.957 220.893,549.624 221.5,549.5C 231.879,553.009 242.545,555.176 253.5,556C 282.188,556.098 310.855,556.765 339.5,558C 377.452,560.734 409.952,575.234 437,601.5C 440.743,605.988 444.243,610.654 447.5,615.5C 447.333,615.833 447.167,616.167 447,616.5C 418.435,588.973 384.268,573.473 344.5,570C 318.148,568.47 291.815,566.803 265.5,565C 249.655,562.663 234.655,557.829 220.5,550.5 Z"/></g>
<g><path style="opacity:1" fill="#aaacaf" d="M 685.5,615.5 C 660.641,605.989 637.807,592.989 617,576.5C 616.617,577.056 616.117,577.389 615.5,577.5C 616.245,571.847 617.912,566.513 620.5,561.5C 644.011,579.434 669.345,594.601 696.5,607C 707.87,611.734 719.537,615.568 731.5,618.5C 727.233,619.575 722.9,620.242 718.5,620.5C 707.317,619.094 696.317,617.427 685.5,615.5 Z"/></g>
<g><path style="opacity:1" fill="#f9f9f9" d="M 685.5,615.5 C 662.867,613.888 640.2,613.222 617.5,613.5C 614.69,601.588 614.023,589.588 615.5,577.5C 616.117,577.389 616.617,577.056 617,576.5C 637.807,592.989 660.641,605.989 685.5,615.5 Z"/></g>
<g><path style="opacity:1" fill="#eb1b21" d="M 1192.5,652.5 C 1192.44,651.957 1192.11,651.624 1191.5,651.5C 1190.39,652.723 1190.22,654.056 1191,655.5C 1201.49,677.651 1206.16,700.985 1205,725.5C 1199.55,760.61 1179.72,782.776 1145.5,792C 1127.31,796.564 1108.98,797.564 1090.5,795C 1102.13,791.353 1113.13,786.353 1123.5,780C 1112.45,779.547 1101.45,778.547 1090.5,777C 1088.15,776.76 1086.15,775.927 1084.5,774.5C 1096.24,739.059 1087.57,709.725 1058.5,686.5C 1052.51,682.03 1046.35,677.696 1040,673.5C 1042.33,678.48 1044.99,683.48 1048,688.5C 1059.51,714.938 1054.68,737.771 1033.5,757C 1020.44,764.709 1006.27,768.209 991,767.5C 974.493,766.803 957.993,765.969 941.5,765C 910.789,761.837 887.456,747.337 871.5,721.5C 868.625,701.16 871.792,681.826 881,663.5C 887.947,655.221 896.114,648.387 905.5,643C 930.589,628.458 957.255,617.791 985.5,611C 1009.14,606.255 1028.98,612.755 1045,630.5C 1055.97,643.157 1064.97,657.157 1072,672.5C 1073.61,658.785 1071.78,645.618 1066.5,633C 1072.56,630.709 1078.89,629.376 1085.5,629C 1119.53,627.189 1152.86,630.855 1185.5,640C 1177.04,630.099 1167.04,622.099 1155.5,616C 1194.46,617.723 1225.29,634.223 1248,665.5C 1247.45,672.694 1245.79,679.694 1243,686.5C 1237.1,679.926 1230.6,674.092 1223.5,669C 1213.14,663.487 1202.81,657.987 1192.5,652.5 Z"/></g>
<g><path style="opacity:1" fill="#f5898d" d="M 981.5,620.5 C 997.641,618.49 1012.97,620.99 1027.5,628C 1038.55,635.354 1046.05,645.187 1050,657.5C 1017.02,630.141 980.186,623.308 939.5,637C 952.806,629.505 966.806,624.005 981.5,620.5 Z"/></g>
<g><path style="opacity:1" fill="#f5888b" d="M 1102.5,637.5 C 1129.16,635.042 1154.16,640.209 1177.5,653C 1145.11,647.578 1112.45,644.244 1079.5,643C 1087.17,640.704 1094.84,638.87 1102.5,637.5 Z"/></g>
<g><path style="opacity:1" fill="#f58a8e" d="M 630.5,653.5 C 683.336,649.963 735.336,654.797 786.5,668C 692.129,661.483 598.462,666.983 505.5,684.5C 504.833,684.333 504.167,684.167 503.5,684C 544.579,668.052 586.913,657.885 630.5,653.5 Z"/></g>
<g><path style="opacity:1" fill="#a11217" d="M 1192.5,652.5 C 1191.67,653.329 1192,654.162 1193.5,655C 1214.89,669.635 1230.72,688.801 1241,712.5C 1249.57,736.891 1249.4,761.225 1240.5,785.5C 1223.06,813.073 1198.4,830.906 1166.5,839C 1155.94,841.316 1145.27,842.983 1134.5,844C 1126.06,844.937 1117.73,844.604 1109.5,843C 1122.7,839.564 1135.03,834.231 1146.5,827C 1133.25,828.676 1119.92,829.843 1106.5,830.5C 1067.67,829.354 1031.34,820.687 997.5,804.5C 1017.63,807.224 1037.3,805.391 1056.5,799C 1068.52,793.803 1077.86,785.637 1084.5,774.5C 1086.15,775.927 1088.15,776.76 1090.5,777C 1101.45,778.547 1112.45,779.547 1123.5,780C 1113.13,786.353 1102.13,791.353 1090.5,795C 1108.98,797.564 1127.31,796.564 1145.5,792C 1179.72,782.776 1199.55,760.61 1205,725.5C 1206.16,700.985 1201.49,677.651 1191,655.5C 1190.22,654.056 1190.39,652.723 1191.5,651.5C 1192.11,651.624 1192.44,651.957 1192.5,652.5 Z"/></g>
<g><path style="opacity:1" fill="#a01217" d="M 935.5,661.5 C 952.457,669.908 967.624,680.908 981,694.5C 986.521,700.861 989.188,708.195 989,716.5C 988.27,720.896 985.77,723.73 981.5,725C 959.812,724.995 939.478,719.828 920.5,709.5C 933.935,711.196 947.268,710.696 960.5,708C 949.074,693.992 940.074,678.492 933.5,661.5C 934.257,660.227 934.923,660.227 935.5,661.5 Z"/></g>
<g><path style="opacity:1" fill="#040000" d="M 935.5,661.5 C 962.596,667.552 987.263,678.719 1009.5,695C 1019.5,703.174 1025.17,713.674 1026.5,726.5C 1026.52,744.637 1017.52,752.137 999.5,749C 981.966,744.569 965.299,737.902 949.5,729C 939,722.918 928.666,716.584 918.5,710C 919.094,709.536 919.761,709.369 920.5,709.5C 939.478,719.828 959.812,724.995 981.5,725C 985.77,723.73 988.27,720.896 989,716.5C 989.188,708.195 986.521,700.861 981,694.5C 967.624,680.908 952.457,669.908 935.5,661.5 Z"/></g>
<g><path style="opacity:1" fill="#a11217" d="M 1058.5,686.5 C 1060.58,694.27 1063.08,702.27 1066,710.5C 1070.1,728.149 1069.1,745.482 1063,762.5C 1055.95,772.286 1046.45,778.453 1034.5,781C 1004.02,786.676 973.849,785.51 944,777.5C 943.235,777.57 942.735,777.903 942.5,778.5C 948.406,791.914 957.74,802.414 970.5,810C 931.931,802.251 892.931,799.584 853.5,802C 836.995,803.644 820.661,806.31 804.5,810C 796.112,811.631 788.112,814.131 780.5,817.5C 765.816,822.5 751.483,828.666 737.5,836C 721.331,846.022 705.331,856.189 689.5,866.5C 697.252,856.575 705.586,847.075 714.5,838C 759.195,798.828 811.195,774.995 870.5,766.5C 854.865,738.323 848.865,708.323 852.5,676.5C 852.724,698.669 858.891,719.002 871,737.5C 871.499,732.177 871.666,726.844 871.5,721.5C 887.456,747.337 910.789,761.837 941.5,765C 957.993,765.969 974.493,766.803 991,767.5C 1006.27,768.209 1020.44,764.709 1033.5,757C 1054.68,737.771 1059.51,714.938 1048,688.5C 1044.99,683.48 1042.33,678.48 1040,673.5C 1046.35,677.696 1052.51,682.03 1058.5,686.5 Z"/></g>
<g><path style="opacity:1" fill="#030000" d="M 1058.5,686.5 C 1087.57,709.725 1096.24,739.059 1084.5,774.5C 1077.86,785.637 1068.52,793.803 1056.5,799C 1037.3,805.391 1017.63,807.224 997.5,804.5C 976.499,801.5 958.165,792.833 942.5,778.5C 942.735,777.903 943.235,777.57 944,777.5C 973.849,785.51 1004.02,786.676 1034.5,781C 1046.45,778.453 1055.95,772.286 1063,762.5C 1069.1,745.482 1070.1,728.149 1066,710.5C 1063.08,702.27 1060.58,694.27 1058.5,686.5 Z"/></g>
<g><path style="opacity:1" fill="#a11217" d="M 531.5,734.5 C 530.262,734.81 530.262,735.31 531.5,736C 561.424,755.923 585.924,781.09 605,811.5C 627.419,847.761 631.752,886.095 618,926.5C 615.337,934.034 611.837,941.034 607.5,947.5C 598.164,956.671 589.33,966.338 581,976.5C 567.993,994.524 555.493,1012.86 543.5,1031.5C 498.446,1020.46 456.779,1002.13 418.5,976.5C 419.043,976.44 419.376,976.107 419.5,975.5C 416.052,967.042 413.218,958.375 411,949.5C 402.351,901.31 406.684,854.31 424,808.5C 429.382,840.328 437.048,871.661 447,902.5C 454.027,925.07 465.527,944.904 481.5,962C 491.152,970.824 502.485,974.491 515.5,973C 563.239,964.432 587.239,935.932 587.5,887.5C 586.578,863.562 581.411,840.562 572,818.5C 559.623,791.4 544.957,765.733 528,741.5C 526.259,738.691 525.092,735.691 524.5,732.5C 527.152,732.41 529.485,733.076 531.5,734.5 Z"/></g>
<g><path style="opacity:1" fill="#6e0c10" d="M 942.5,778.5 C 958.165,792.833 976.499,801.5 997.5,804.5C 1031.34,820.687 1067.67,829.354 1106.5,830.5C 1119.92,829.843 1133.25,828.676 1146.5,827C 1135.03,834.231 1122.7,839.564 1109.5,843C 1117.73,844.604 1126.06,844.937 1134.5,844C 1145.27,842.983 1155.94,841.316 1166.5,839C 1198.4,830.906 1223.06,813.073 1240.5,785.5C 1224.19,844.944 1185.02,874.611 1123,874.5C 1111.57,873.679 1100.41,871.512 1089.5,868C 1052.17,854.667 1014.83,841.333 977.5,828C 930.753,812.179 882.753,805.512 833.5,808C 815.561,809.736 797.894,812.903 780.5,817.5C 788.112,814.131 796.112,811.631 804.5,810C 820.661,806.31 836.995,803.644 853.5,802C 892.931,799.584 931.931,802.251 970.5,810C 957.74,802.414 948.406,791.914 942.5,778.5 Z"/></g>
<g><path style="opacity:1" fill="#a11217" d="M 613.5,791.5 C 638.254,811.968 656.42,837.302 668,867.5C 677.527,896.011 676.194,924.011 664,951.5C 654.223,971.501 645.223,991.834 637,1012.5C 634.698,1024.74 634.032,1037.07 635,1049.5C 635.909,1060.48 640.409,1069.65 648.5,1077C 651.749,1079.27 655.082,1080.1 658.5,1079.5C 665.101,1081.17 671.434,1080.34 677.5,1077C 712.555,1058.81 747.888,1041.14 783.5,1024C 856.896,989.813 933.229,964.313 1012.5,947.5C 1015.2,946.857 1017.86,946.024 1020.5,945C 1060.98,939.597 1101.32,933.264 1141.5,926C 1162.31,921.728 1182.31,915.062 1201.5,906C 1217.47,897.536 1228.13,884.702 1233.5,867.5C 1236.3,871.063 1237.63,875.23 1237.5,880C 1234.84,895.02 1227.51,907.354 1215.5,917C 1204.85,925.33 1193.51,932.663 1181.5,939C 1167.26,944.059 1152.6,946.893 1137.5,947.5C 1132.49,947.334 1127.49,947.501 1122.5,948C 1123.04,948.717 1123.71,949.217 1124.5,949.5C 1140.79,956.26 1157.79,959.927 1175.5,960.5C 1168.62,984.301 1160.46,1007.63 1151,1030.5C 1148.71,1034.79 1145.21,1037.62 1140.5,1039C 1086.99,1056.92 1032.16,1068.75 976,1074.5C 972.833,1074.33 969.667,1074.17 966.5,1074C 959.726,1066.28 953.559,1058.11 948,1049.5C 947.018,1048.24 946.685,1046.91 947,1045.5C 969.89,1038.99 993.056,1033.49 1016.5,1029C 968.123,1020.63 920.456,1023.63 873.5,1038C 836.368,1049.07 801.368,1064.74 768.5,1085C 746.1,1097.03 723.1,1107.7 699.5,1117C 681.043,1124.49 661.876,1128.65 642,1129.5C 618.389,1129.23 605.722,1117.23 604,1093.5C 602.649,1076.95 603.982,1060.62 608,1044.5C 615.785,1013.14 627.118,983.145 642,954.5C 665.372,894.213 655.872,839.879 613.5,791.5 Z"/></g>
<g><path style="opacity:1" fill="#fdfdfd" d="M 804.5,835.5 C 824.908,834.885 845.241,835.719 865.5,838C 872.285,846.634 880.618,853.134 890.5,857.5C 895.867,854.644 900.534,850.81 904.5,846C 906.167,845.333 907.833,845.333 909.5,846C 919.24,848.368 928.906,851.034 938.5,854C 943.459,861.293 949.459,867.626 956.5,873C 957.833,873.667 959.167,873.667 960.5,873C 964.265,870.369 968.098,867.869 972,865.5C 983.888,869.861 995.722,874.361 1007.5,879C 938.744,895.363 871.411,916.363 805.5,942C 780.048,952.906 754.381,962.906 728.5,972C 743.932,944.898 764.599,922.565 790.5,905C 797.781,900.019 805.781,897.352 814.5,897C 824.21,893.961 831.544,887.961 836.5,879C 831.947,881.482 827.281,884.149 822.5,887C 819.594,888.318 816.594,888.652 813.5,888C 798.914,881.084 787.081,870.918 778,857.5C 777.333,856.167 777.333,854.833 778,853.5C 781.833,848.333 785.667,843.167 789.5,838C 794.661,837.268 799.661,836.434 804.5,835.5 Z"/></g>
<g><path style="opacity:1" fill="#6d0c10" d="M 1233.5,867.5 C 1228.13,884.702 1217.47,897.536 1201.5,906C 1182.31,915.062 1162.31,921.728 1141.5,926C 1101.32,933.264 1060.98,939.597 1020.5,945C 1017.86,946.024 1015.2,946.857 1012.5,947.5C 944.625,957.22 878.291,974.053 813.5,998C 766.476,1015.85 720.142,1035.35 674.5,1056.5C 675.115,1051.5 676.782,1046.5 679.5,1041.5C 805.471,977.342 937.971,932.009 1077,905.5C 1121.41,917.704 1163.91,912.871 1204.5,891C 1214.93,884.117 1224.6,876.284 1233.5,867.5 Z"/></g>
<g><path style="opacity:1" fill="#6e0c10" d="M 418.5,976.5 C 456.779,1002.13 498.446,1020.46 543.5,1031.5C 555.493,1012.86 567.993,994.524 581,976.5C 589.33,966.338 598.164,956.671 607.5,947.5C 592.653,974.869 580.82,1003.54 572,1033.5C 569.762,1041.71 568.262,1050.04 567.5,1058.5C 526.623,1058.54 490.289,1045.88 458.5,1020.5C 458.167,1020.67 457.833,1020.83 457.5,1021C 476.83,1048.99 502.164,1069.66 533.5,1083C 541.055,1086.28 548.722,1089.28 556.5,1092C 528.342,1095.3 502.009,1089.63 477.5,1075C 446.24,1055.07 421.073,1029.24 402,997.5C 384.992,969.953 371.158,940.953 360.5,910.5C 360.369,909.761 360.536,909.094 361,908.5C 376.643,934.101 395.809,956.767 418.5,976.5 Z"/></g>
<g><path style="opacity:1" fill="#600b0f" d="M 1137.5,947.5 C 1133.17,948.167 1128.83,948.833 1124.5,949.5C 1123.71,949.217 1123.04,948.717 1122.5,948C 1127.49,947.501 1132.49,947.334 1137.5,947.5 Z"/></g>
<g><path style="opacity:1" fill="#ec1a21" d="M 1142.5,973.5 C 1145.57,973.183 1148.57,973.516 1151.5,974.5C 1145.32,989.894 1138.49,1004.89 1131,1019.5C 1099.41,1026.85 1067.91,1034.52 1036.5,1042.5C 1036.17,1042.17 1035.83,1041.83 1035.5,1041.5C 1042.98,1023.51 1054.98,1009.35 1071.5,999C 1093.65,986.006 1117.32,977.506 1142.5,973.5 Z"/></g>
<g><path style="opacity:1" fill="#a11217" d="M 334.5,988.5 C 341.22,1043.49 359.387,1094.49 389,1141.5C 422.1,1192.27 462.6,1236.44 510.5,1274C 581.16,1327.68 658.494,1370.01 742.5,1401C 800.834,1423.29 860.167,1441.12 920.5,1454.5C 982.816,1487.04 1047.15,1514.71 1113.5,1537.5C 1098.15,1537.2 1082.81,1536.53 1067.5,1535.5C 782.836,1514.42 525.17,1420.92 294.5,1255C 264.549,1233.37 236.216,1209.87 209.5,1184.5C 223.823,1194.63 238.823,1203.8 254.5,1212C 296.321,1233.37 340.654,1243.87 387.5,1243.5C 379.407,1227.73 372.574,1211.4 367,1194.5C 346.368,1127.42 335.534,1058.75 334.5,988.5 Z"/></g>
<g><path style="opacity:1" fill="#a11217" d="M 946.5,1111.5 C 923.154,1126.5 900.154,1142 877.5,1158C 900.714,1237.14 945.381,1301.14 1011.5,1350C 1038.57,1370.37 1067.9,1386.87 1099.5,1399.5C 1103.27,1400.58 1103.27,1401.24 1099.5,1401.5C 1065.42,1397.25 1032.08,1389.75 999.5,1379C 975.516,1369.4 951.516,1359.9 927.5,1350.5C 903.288,1327.96 881.288,1303.63 861.5,1277.5C 880.46,1288.65 900.126,1298.15 920.5,1306C 892.306,1268.46 866.473,1229.29 843,1188.5C 834.818,1172.97 827.318,1157.14 820.5,1141C 854.64,1121.77 887.974,1101.27 920.5,1079.5C 928.048,1089.88 936.548,1099.54 946,1108.5C 946.483,1109.45 946.649,1110.45 946.5,1111.5 Z"/></g>
<g><path style="opacity:1" fill="#eb1a21" d="M 946.5,1111.5 C 938.747,1164.9 947.913,1215.23 974,1262.5C 985.94,1282.7 999.606,1301.7 1015,1319.5C 1041.83,1347.83 1069.99,1374.5 1099.5,1399.5C 1067.9,1386.87 1038.57,1370.37 1011.5,1350C 945.381,1301.14 900.714,1237.14 877.5,1158C 900.154,1142 923.154,1126.5 946.5,1111.5 Z"/></g>
<g><path style="opacity:1" fill="#6e0d11" d="M 209.5,1184.5 C 236.216,1209.87 264.549,1233.37 294.5,1255C 525.17,1420.92 782.836,1514.42 1067.5,1535.5C 991.21,1535.61 915.043,1530.95 839,1521.5C 837.293,1521.51 835.793,1521.84 834.5,1522.5C 704.397,1505.48 579.064,1471.31 458.5,1420C 421.838,1403.84 386.172,1385.84 351.5,1366C 315,1344.17 278.5,1322.33 242,1300.5C 292.769,1360.63 344.436,1420.29 397,1479.5C 398.122,1481.62 399.622,1483.46 401.5,1485C 399.316,1485.12 397.316,1484.62 395.5,1483.5C 395.938,1483.57 396.272,1483.4 396.5,1483C 388.041,1478.94 379.707,1474.6 371.5,1470C 263.198,1403.9 207.365,1307.07 204,1179.5C 205.704,1181.37 207.537,1183.04 209.5,1184.5 Z"/></g>
<g><path style="opacity:1" fill="#eb1a21" d="M 861.5,1277.5 C 881.288,1303.63 903.288,1327.96 927.5,1350.5C 962.04,1393.89 999.373,1435.06 1039.5,1474C 1063.88,1496.56 1089.55,1517.39 1116.5,1536.5C 1115.79,1537.4 1114.79,1537.74 1113.5,1537.5C 1047.15,1514.71 982.816,1487.04 920.5,1454.5C 835.475,1381.57 774.642,1291.91 738,1185.5C 737.333,1184.5 737.333,1183.5 738,1182.5C 774.433,1220.45 815.599,1252.11 861.5,1277.5 Z"/></g>
<g><path style="opacity:1" fill="#8b8b8b" d="M 203.5,1424.5 C 202.833,1426.5 202.167,1428.5 201.5,1430.5C 201.192,1428.08 201.526,1425.74 202.5,1423.5C 203.107,1423.62 203.44,1423.96 203.5,1424.5 Z"/></g>
<g><path style="opacity:1" fill="#8d1015" d="M 834.5,1522.5 C 835.793,1521.84 837.293,1521.51 839,1521.5C 915.043,1530.95 991.21,1535.61 1067.5,1535.5C 1082.81,1536.53 1098.15,1537.2 1113.5,1537.5C 1114.79,1537.74 1115.79,1537.4 1116.5,1536.5C 1117.29,1536.78 1117.96,1537.28 1118.5,1538C 1023.37,1540.83 928.705,1535.66 834.5,1522.5 Z"/></g>
</svg>
