<?xml version="1.0" encoding="UTF-8"?>
<!DOCTYPE svg PUBLIC "-//W3C//DTD SVG 1.1//EN" "http://www.w3.org/Graphics/SVG/1.1/DTD/svg11.dtd">
<svg xmlns="http://www.w3.org/2000/svg" version="1.1" width="512px" height="512px" style="shape-rendering:geometricPrecision; text-rendering:geometricPrecision; image-rendering:optimizeQuality; fill-rule:evenodd; clip-rule:evenodd" xmlns:xlink="http://www.w3.org/1999/xlink">
<g><path style="opacity:1" fill="#35a85b" d="M 63.5,-0.5 C 191.5,-0.5 319.5,-0.5 447.5,-0.5C 450.743,0.490491 454.076,1.49049 457.5,2.5C 452.833,7.5 448.167,12.5 443.5,17.5C 407.179,9.21086 379.346,20.8775 360,52.5C 352.206,69.8452 350.372,87.8452 354.5,106.5C 237.167,223.5 119.833,340.5 2.5,457.5C 1.49049,454.076 0.490491,450.743 -0.5,447.5C -0.5,319.5 -0.5,191.5 -0.5,63.5C 7.16667,28.5 28.5,7.16667 63.5,-0.5 Z"/></g>
<g><path style="opacity:1" fill="#f9da2f" d="M 457.5,2.5 C 483.5,10.5 500.5,27.5 508.5,53.5C 502.833,58.8333 497.167,64.1667 491.5,69.5C 484.192,44.1907 468.192,26.8573 443.5,17.5C 448.167,12.5 452.833,7.5 457.5,2.5 Z"/></g>
<g><path style="opacity:1" fill="#dd3738" d="M 443.5,17.5 C 468.192,26.8573 484.192,44.1907 491.5,69.5C 494.934,94.096 489.434,116.429 475,136.5C 461.911,150.918 449.578,165.918 438,181.5C 429.864,195.074 425.031,209.74 423.5,225.5C 422.833,225.5 422.167,225.5 421.5,225.5C 419.052,202.95 410.385,183.284 395.5,166.5C 387.21,156.373 378.71,146.373 370,136.5C 363.477,127.119 358.31,117.119 354.5,106.5C 350.372,87.8452 352.206,69.8452 360,52.5C 379.346,20.8775 407.179,9.21086 443.5,17.5 Z"/></g>
<g><path style="opacity:1" fill="#c1bfbd" d="M 508.5,53.5 C 509.51,56.9236 510.51,60.2569 511.5,63.5C 511.5,191.5 511.5,319.5 511.5,447.5C 509.69,455.927 506.69,463.927 502.5,471.5C 502.013,470.527 501.513,469.527 501,468.5C 432.965,400.632 365.132,332.632 297.5,264.5C 329.833,231.5 362.5,198.833 395.5,166.5C 410.385,183.284 419.052,202.95 421.5,225.5C 422.167,236.167 422.833,236.167 423.5,225.5C 425.031,209.74 429.864,195.074 438,181.5C 449.578,165.918 461.911,150.918 475,136.5C 489.434,116.429 494.934,94.096 491.5,69.5C 497.167,64.1667 502.833,58.8333 508.5,53.5 Z"/></g>
<g><path style="opacity:1" fill="#7e2426" d="M 416.5,63.5 C 437.998,62.8305 448.165,73.1638 447,94.5C 441.924,108.887 431.757,115.054 416.5,113C 402.113,107.924 395.946,97.7571 398,82.5C 401.017,72.9839 407.184,66.6505 416.5,63.5 Z"/></g>
<g><path style="opacity:1" fill="#f0f1f0" d="M 163.5,105.5 C 184.538,103.086 202.538,109.252 217.5,124C 212.356,129.067 207.022,133.9 201.5,138.5C 187.077,126.119 171.41,124.286 154.5,133C 132.79,152.014 129.623,173.847 145,198.5C 164.649,218.429 184.315,218.429 204,198.5C 207.423,194.153 209.923,189.32 211.5,184C 199.171,183.5 186.838,183.333 174.5,183.5C 174.5,176.167 174.5,168.833 174.5,161.5C 194.833,161.5 215.167,161.5 235.5,161.5C 237.275,187.709 227.942,208.876 207.5,225C 177.711,241.334 151.211,237.167 128,212.5C 108.352,183.562 108.685,154.895 129,126.5C 138.457,116.027 149.957,109.027 163.5,105.5 Z"/></g>
<g><path style="opacity:1" fill="#f9da2b" d="M 354.5,106.5 C 358.31,117.119 363.477,127.119 370,136.5C 378.71,146.373 387.21,156.373 395.5,166.5C 362.5,198.833 329.833,231.5 297.5,264.5C 286.167,275.167 275.167,286.167 264.5,297.5C 193.833,367.5 123.5,437.833 53.5,508.5C 27.5,500.5 10.5,483.5 2.5,457.5C 119.833,340.5 237.167,223.5 354.5,106.5 Z"/></g>
<g><path style="opacity:1" fill="#ce8584" d="M 421.5,225.5 C 422.167,225.5 422.833,225.5 423.5,225.5C 422.833,236.167 422.167,236.167 421.5,225.5 Z"/></g>
<g><path style="opacity:0.998" fill="#fefefe" d="M 297.5,264.5 C 365.132,332.632 432.965,400.632 501,468.5C 501.513,469.527 502.013,470.527 502.5,471.5C 495.833,485.5 485.5,495.833 471.5,502.5C 403.035,434.535 334.701,366.368 266.5,298C 265.906,297.536 265.239,297.369 264.5,297.5C 275.167,286.167 286.167,275.167 297.5,264.5 Z"/></g>
<g><path style="opacity:1" fill="#5881ca" d="M 264.5,297.5 C 265.239,297.369 265.906,297.536 266.5,298C 334.701,366.368 403.035,434.535 471.5,502.5C 463.927,506.69 455.927,509.69 447.5,511.5C 319.5,511.5 191.5,511.5 63.5,511.5C 60.2569,510.51 56.9236,509.51 53.5,508.5C 123.5,437.833 193.833,367.5 264.5,297.5 Z"/></g>
</svg>
