<?xml version="1.0" encoding="UTF-8"?>
<!DOCTYPE svg PUBLIC "-//W3C//DTD SVG 1.1//EN" "http://www.w3.org/Graphics/SVG/1.1/DTD/svg11.dtd">
<svg xmlns="http://www.w3.org/2000/svg" version="1.1" width="512px" height="512px" style="shape-rendering:geometricPrecision; text-rendering:geometricPrecision; image-rendering:optimizeQuality; fill-rule:evenodd; clip-rule:evenodd" xmlns:xlink="http://www.w3.org/1999/xlink">
<g><path style="opacity:0.999" fill="#01aade" d="M 75.5,-0.5 C 195.5,-0.5 315.5,-0.5 435.5,-0.5C 477.158,8.49107 502.491,33.8244 511.5,75.5C 511.5,195.5 511.5,315.5 511.5,435.5C 502.5,477.167 477.167,502.5 435.5,511.5C 315.5,511.5 195.5,511.5 75.5,511.5C 33.8333,502.5 8.5,477.167 -0.5,435.5C -0.5,315.5 -0.5,195.5 -0.5,75.5C 8.5,33.8333 33.8333,8.5 75.5,-0.5 Z"/></g>
<g><path style="opacity:1" fill="#fefefe" d="M 308.5,121.5 C 325.43,119.652 341.097,123.152 355.5,132C 360.345,136.18 365.178,140.347 370,144.5C 384.032,142.271 396.699,136.938 408,128.5C 403.04,144.474 393.206,156.641 378.5,165C 379,165.167 379.5,165.333 380,165.5C 393.626,160.637 407.459,156.804 421.5,154C 410.696,163.803 400.196,173.97 390,184.5C 388.114,224.046 378.114,261.379 360,296.5C 323.035,357.165 268.702,387.165 197,386.5C 160.444,387.323 126.944,377.823 96.5,358C 119.998,357.945 142.998,354.612 165.5,348C 174.557,345.06 182.39,340.226 189,333.5C 190.707,331.091 191.54,328.425 191.5,325.5C 172.412,325.872 156.246,319.205 143,305.5C 137.127,298.549 134.461,290.549 135,281.5C 138.638,283.014 142.471,283.68 146.5,283.5C 151.07,283.78 155.404,282.946 159.5,281C 138.293,272.791 122.46,258.624 112,238.5C 109.182,231.745 108.182,224.745 109,217.5C 112.336,220.169 116.169,221.669 120.5,222C 126.785,223.355 133.118,223.689 139.5,223C 106.199,199.162 100.032,169.662 121,134.5C 156.901,177.035 202.734,200.368 258.5,204.5C 250.774,173.169 260.108,148.336 286.5,130C 293.618,126.245 300.951,123.412 308.5,121.5 Z"/></g>
</svg>
