<?xml version="1.0" encoding="UTF-8"?>
<!DOCTYPE svg PUBLIC "-//W3C//DTD SVG 1.1//EN" "http://www.w3.org/Graphics/SVG/1.1/DTD/svg11.dtd">
<svg xmlns="http://www.w3.org/2000/svg" version="1.1" width="512px" height="512px" style="shape-rendering:geometricPrecision; text-rendering:geometricPrecision; image-rendering:optimizeQuality; fill-rule:evenodd; clip-rule:evenodd" xmlns:xlink="http://www.w3.org/1999/xlink">
<g><path style="opacity:0.977" fill="#02c351" d="M 126.5,18.5 C 215.19,18.0207 303.857,18.5207 392.5,20C 436.462,28.5607 467.295,53.394 485,94.5C 488.434,103.902 490.767,113.568 492,123.5C 492.667,211.833 492.667,300.167 492,388.5C 485.24,434.251 460.74,466.418 418.5,485C 407.227,489.402 395.56,492.068 383.5,493C 297.833,493.667 212.167,493.667 126.5,493C 77.9967,486.815 44.1634,461.315 25,416.5C 21.2409,405.797 18.9075,394.797 18,383.5C 17.3333,298.167 17.3333,212.833 18,127.5C 23.3526,80.9309 47.186,47.7642 89.5,28C 101.526,23.102 113.859,19.9353 126.5,18.5 Z"/></g>
<g><path style="opacity:1" fill="#a3a9aa" d="M 134.5,34.5 C 214.834,34.3333 295.167,34.5 375.5,35C 420.726,41.8973 452.226,66.3973 470,108.5C 472.637,116.687 474.637,125.02 476,133.5C 476.667,214.5 476.667,295.5 476,376.5C 469.894,420.236 446.727,451.069 406.5,469C 396.449,472.763 386.116,475.429 375.5,477C 295.167,477.667 214.833,477.667 134.5,477C 76.7732,466.606 43.2732,432.44 34,374.5C 33.0196,292.474 33.353,210.474 35,128.5C 47.6821,75.314 80.8487,43.9807 134.5,34.5 Z"/></g>
<g><path style="opacity:1" fill="#01c351" d="M 132.5,44.5 C 215.86,44.0193 299.194,44.5193 382.5,46C 428.529,56.6956 456.362,85.1956 466,131.5C 466.667,213.167 466.667,294.833 466,376.5C 459.654,416.702 437.82,444.868 400.5,461C 392.7,463.823 384.7,465.823 376.5,467C 295.167,467.667 213.833,467.667 132.5,467C 82.3157,456.483 52.8157,425.983 44,375.5C 43.0167,293.136 43.3501,210.803 45,128.5C 56.7876,82.2092 85.9543,54.2092 132.5,44.5 Z"/></g>
<g><path style="opacity:1" fill="#a4aaab" d="M 239.5,98.5 C 313.999,94.3139 367.833,125.314 401,191.5C 421.374,244.797 415.708,295.131 384,342.5C 349.526,386.982 304.026,408.149 247.5,406C 225.97,404.326 205.47,398.826 186,389.5C 162.047,396.595 138.213,404.095 114.5,412C 102.599,416.089 97.0994,411.922 98,399.5C 106.163,375.678 114.33,351.844 122.5,328C 92.3137,268.544 96.4804,211.71 135,157.5C 162.292,124.438 197.125,104.772 239.5,98.5 Z"/></g>
<g><path style="opacity:1" fill="#fefefe" d="M 243.5,108.5 C 303.717,105.191 350.217,128.525 383,178.5C 412.112,232.466 409.779,285.133 376,336.5C 332.937,389.231 278.437,406.731 212.5,389C 203.884,386.229 195.551,382.729 187.5,378.5C 160.825,387.005 134.159,395.172 107.5,403C 116.176,377.639 124.842,352.306 133.5,327C 103.693,272.439 105.86,219.272 140,167.5C 166.244,133.134 200.744,113.467 243.5,108.5 Z"/></g>
<g><path style="opacity:1" fill="#a4abab" d="M 246.5,130.5 C 302.887,128.779 344.054,152.779 370,202.5C 390.621,256.741 380.121,303.907 338.5,344C 301.279,373.76 259.945,381.094 214.5,366C 205.852,362.342 197.518,358.176 189.5,353.5C 174.612,358.685 159.612,363.685 144.5,368.5C 148.179,353.617 152.845,338.784 158.5,324C 132.974,286.67 128.474,246.837 145,204.5C 165.555,161.638 199.388,136.971 246.5,130.5 Z"/></g>
<g><path style="opacity:1" fill="#03c351" d="M 245.5,140.5 C 306.295,138.84 346.795,166.506 367,223.5C 377.081,272.467 362.581,312.301 323.5,343C 290.042,365.297 254.376,369.631 216.5,356C 207.934,351.55 199.268,347.383 190.5,343.5C 180.636,346.345 170.803,349.345 161,352.5C 160.5,352.167 160,351.833 159.5,351.5C 162.432,343.204 165.265,334.871 168,326.5C 168.667,324.167 168.667,321.833 168,319.5C 144.333,286.154 139.333,250.154 153,211.5C 171.226,171.444 202.059,147.777 245.5,140.5 Z"/></g>
<g><path style="opacity:1" fill="#a4aaab" d="M 203.5,176.5 C 210.257,176.123 216.924,176.623 223.5,178C 227,180.167 229.833,183 232,186.5C 237.079,197.983 241.579,209.65 245.5,221.5C 244.164,229.337 240.831,236.171 235.5,242C 244.661,258.327 257.994,269.827 275.5,276.5C 279.311,271.521 283.311,266.688 287.5,262C 291.894,259.626 296.56,258.959 301.5,260C 313.075,264.787 324.408,270.12 335.5,276C 337,277.5 338.5,279 340,280.5C 343.971,308.012 332.138,324.178 304.5,329C 277.63,328.265 253.296,319.932 231.5,304C 208.274,285.114 190.774,261.947 179,234.5C 173.649,213.225 179.149,195.392 195.5,181C 198.099,179.205 200.766,177.705 203.5,176.5 Z"/></g>
<g><path style="opacity:1" fill="#fefefe" d="M 206.5,186.5 C 211.297,186.121 215.964,186.621 220.5,188C 221.787,189.41 222.954,190.91 224,192.5C 225.875,199.24 228.541,205.573 232,211.5C 233.849,215.697 234.849,220.03 235,224.5C 231.327,230.328 227.494,235.994 223.5,241.5C 234.654,263.151 251.654,278.318 274.5,287C 276.167,287.667 277.833,287.667 279.5,287C 284.378,281.791 288.878,276.291 293,270.5C 296.174,269.272 299.341,269.439 302.5,271C 312.359,275.179 321.859,280.013 331,285.5C 332.729,301.103 326.229,311.603 311.5,317C 304.32,319.275 296.987,319.942 289.5,319C 259.712,312.52 234.878,297.687 215,274.5C 208.28,266.114 201.947,257.447 196,248.5C 186.831,233.617 185.164,217.95 191,201.5C 194.765,194.899 199.932,189.899 206.5,186.5 Z"/></g>
</svg>
