<?xml version="1.0" encoding="UTF-8"?>
<!DOCTYPE svg PUBLIC "-//W3C//DTD SVG 1.1//EN" "http://www.w3.org/Graphics/SVG/1.1/DTD/svg11.dtd">
<svg xmlns="http://www.w3.org/2000/svg" version="1.1" width="512px" height="512px" style="shape-rendering:geometricPrecision; text-rendering:geometricPrecision; image-rendering:optimizeQuality; fill-rule:evenodd; clip-rule:evenodd" xmlns:xlink="http://www.w3.org/1999/xlink">
<g><path style="opacity:1" fill="#86888b" d="M 75.5,-0.5 C 195.5,-0.5 315.5,-0.5 435.5,-0.5C 477.158,8.49107 502.491,33.8244 511.5,75.5C 511.5,195.5 511.5,315.5 511.5,435.5C 502.5,477.167 477.167,502.5 435.5,511.5C 315.5,511.5 195.5,511.5 75.5,511.5C 33.8333,502.5 8.5,477.167 -0.5,435.5C -0.5,315.5 -0.5,195.5 -0.5,75.5C 8.5,33.8333 33.8333,8.5 75.5,-0.5 Z"/></g>
<g><path style="opacity:1" fill="#fefefe" d="M 74.5,8.5 C 194.5,8.33333 314.5,8.5 434.5,9C 471.685,16.8521 494.185,39.3521 502,76.5C 502.667,196.167 502.667,315.833 502,435.5C 493.72,472.114 471.22,494.281 434.5,502C 314.833,502.667 195.167,502.667 75.5,502C 38.4463,493.613 16.2796,470.78 9,433.5C 8.33333,313.833 8.33333,194.167 9,74.5C 17.6813,39.3191 39.5146,17.3191 74.5,8.5 Z"/></g>
<g><path style="opacity:1" fill="#ff0301" d="M 113.5,117.5 C 207.167,117.333 300.834,117.5 394.5,118C 425.551,122.051 445.051,139.218 453,169.5C 453.667,226.167 453.667,282.833 453,339.5C 445.829,371.335 425.995,389.168 393.5,393C 300.167,393.667 206.833,393.667 113.5,393C 83.1862,387.352 64.6862,369.519 58,339.5C 57.3333,282.833 57.3333,226.167 58,169.5C 65.7691,140.56 84.2691,123.227 113.5,117.5 Z"/></g>
<g><path style="opacity:1" fill="#fffdfd" d="M 204.5,193.5 C 238.342,213.919 272.008,234.586 305.5,255.5C 272.12,276.278 238.62,296.944 205,317.5C 204.5,276.168 204.333,234.835 204.5,193.5 Z"/></g>
</svg>
